G04 #@! TF.GenerationSoftware,KiCad,Pcbnew,(5.1.8)-1*
G04 #@! TF.CreationDate,2021-03-27T16:05:23+01:00*
G04 #@! TF.ProjectId,MSX Mega Adapter,4d535820-4d65-4676-9120-416461707465,rev?*
G04 #@! TF.SameCoordinates,Original*
G04 #@! TF.FileFunction,Copper,L1,Top*
G04 #@! TF.FilePolarity,Positive*
%FSLAX46Y46*%
G04 Gerber Fmt 4.6, Leading zero omitted, Abs format (unit mm)*
G04 Created by KiCad (PCBNEW (5.1.8)-1) date 2021-03-27 16:05:23*
%MOMM*%
%LPD*%
G01*
G04 APERTURE LIST*
G04 #@! TA.AperFunction,ComponentPad*
%ADD10C,1.600000*%
G04 #@! TD*
G04 #@! TA.AperFunction,ComponentPad*
%ADD11O,2.400000X1.600000*%
G04 #@! TD*
G04 #@! TA.AperFunction,ComponentPad*
%ADD12R,2.400000X1.600000*%
G04 #@! TD*
G04 #@! TA.AperFunction,ComponentPad*
%ADD13R,1.600000X1.600000*%
G04 #@! TD*
G04 #@! TA.AperFunction,ComponentPad*
%ADD14C,4.000000*%
G04 #@! TD*
G04 #@! TA.AperFunction,ComponentPad*
%ADD15O,1.600000X1.600000*%
G04 #@! TD*
G04 #@! TA.AperFunction,Conductor*
%ADD16C,0.250000*%
G04 #@! TD*
G04 APERTURE END LIST*
D10*
X128985000Y-67945000D03*
X133985000Y-67945000D03*
D11*
X135255000Y-71755000D03*
X127635000Y-86995000D03*
X135255000Y-74295000D03*
X127635000Y-84455000D03*
X135255000Y-76835000D03*
X127635000Y-81915000D03*
X135255000Y-79375000D03*
X127635000Y-79375000D03*
X135255000Y-81915000D03*
X127635000Y-76835000D03*
X135255000Y-84455000D03*
X127635000Y-74295000D03*
X135255000Y-86995000D03*
D12*
X127635000Y-71755000D03*
D13*
X121285000Y-80645000D03*
D10*
X121285000Y-77875000D03*
X121285000Y-75105000D03*
X121285000Y-72335000D03*
X121285000Y-69565000D03*
X118445000Y-79260000D03*
X118445000Y-76490000D03*
X118445000Y-73720000D03*
X118445000Y-70950000D03*
D14*
X119865000Y-62605000D03*
X119865000Y-87605000D03*
D13*
X141605000Y-80645000D03*
D10*
X141605000Y-77875000D03*
X141605000Y-75105000D03*
X141605000Y-72335000D03*
X141605000Y-69565000D03*
X144445000Y-79260000D03*
X144445000Y-76490000D03*
X144445000Y-73720000D03*
X144445000Y-70950000D03*
D14*
X143025000Y-87605000D03*
X143025000Y-62605000D03*
D13*
X135255000Y-64770000D03*
D15*
X127635000Y-64770000D03*
X127635000Y-61087000D03*
D13*
X135255000Y-61087000D03*
D16*
X134504630Y-69596000D02*
X134620000Y-69596000D01*
X133985000Y-67945000D02*
X133985000Y-69076370D01*
X133985000Y-69076370D02*
X134504630Y-69596000D01*
X121285000Y-69565000D02*
X134620000Y-69596000D01*
X135255000Y-70104000D02*
X135255000Y-71755000D01*
X134620000Y-69596000D02*
X134747000Y-69596000D01*
X134747000Y-69596000D02*
X135255000Y-70104000D01*
X141574000Y-69596000D02*
X134747000Y-69596000D01*
X141605000Y-69565000D02*
X141574000Y-69596000D01*
X124079000Y-80645000D02*
X138835000Y-80645000D01*
X138835000Y-80645000D02*
X141605000Y-77875000D01*
X121285000Y-77875000D02*
X121309000Y-77875000D01*
X121309000Y-77875000D02*
X124079000Y-80645000D01*
X141557000Y-75105000D02*
X141605000Y-75105000D01*
X121285000Y-75105000D02*
X124285000Y-78105000D01*
X138557000Y-78105000D02*
X141557000Y-75105000D01*
X124285000Y-78105000D02*
X138557000Y-78105000D01*
X140915000Y-73025000D02*
X141605000Y-72335000D01*
X121285000Y-72335000D02*
X121975000Y-73025000D01*
X121975000Y-73025000D02*
X140915000Y-73025000D01*
X139065000Y-83185000D02*
X141605000Y-80645000D01*
X122775000Y-83185000D02*
X139065000Y-83185000D01*
X121285000Y-80645000D02*
X121285000Y-81695000D01*
X121285000Y-81695000D02*
X122775000Y-83185000D01*
X136305000Y-61087000D02*
X135255000Y-61087000D01*
X145276000Y-79260000D02*
X145923000Y-78613000D01*
X144445000Y-79260000D02*
X145276000Y-79260000D01*
X145923000Y-70104000D02*
X136906000Y-61087000D01*
X145923000Y-78613000D02*
X145923000Y-70104000D01*
X136906000Y-61087000D02*
X136305000Y-61087000D01*
X117638000Y-76490000D02*
X117094000Y-75946000D01*
X118445000Y-76490000D02*
X117638000Y-76490000D01*
X117094000Y-68580000D02*
X117729000Y-67945000D01*
X117094000Y-75946000D02*
X117094000Y-68580000D01*
X125730000Y-64770000D02*
X122555000Y-67945000D01*
X127635000Y-64770000D02*
X125730000Y-64770000D01*
X117729000Y-67945000D02*
X122555000Y-67945000D01*
X121539000Y-67183000D02*
X117602000Y-67183000D01*
X117602000Y-67183000D02*
X116605010Y-68179990D01*
X127635000Y-61087000D02*
X121539000Y-67183000D01*
X117233000Y-79260000D02*
X118445000Y-79260000D01*
X116605010Y-78632010D02*
X117233000Y-79260000D01*
X116605010Y-68179990D02*
X116605010Y-78632010D01*
X144445000Y-70150000D02*
X144445000Y-70950000D01*
X135255000Y-64770000D02*
X139065000Y-64770000D01*
X139065000Y-64770000D02*
X144445000Y-70150000D01*
X120650000Y-70993000D02*
X126873000Y-70993000D01*
X118445000Y-73720000D02*
X118445000Y-73198000D01*
X126873000Y-70993000D02*
X127635000Y-71755000D01*
X118445000Y-73198000D02*
X120650000Y-70993000D01*
X128905000Y-75565000D02*
X139065000Y-75565000D01*
X144445000Y-75865000D02*
X144445000Y-76490000D01*
X139065000Y-75565000D02*
X140970000Y-73660000D01*
X142240000Y-73660000D02*
X144445000Y-75865000D01*
X127635000Y-74295000D02*
X128905000Y-75565000D01*
X140970000Y-73660000D02*
X142240000Y-73660000D01*
M02*
