G04 #@! TF.GenerationSoftware,KiCad,Pcbnew,(5.1.5)-3*
G04 #@! TF.CreationDate,2020-12-08T02:28:16+01:00*
G04 #@! TF.ProjectId,MSX Mega Adapter,4d535820-4d65-4676-9120-416461707465,rev?*
G04 #@! TF.SameCoordinates,Original*
G04 #@! TF.FileFunction,Legend,Top*
G04 #@! TF.FilePolarity,Positive*
%FSLAX46Y46*%
G04 Gerber Fmt 4.6, Leading zero omitted, Abs format (unit mm)*
G04 Created by KiCad (PCBNEW (5.1.5)-3) date 2020-12-08 02:28:16*
%MOMM*%
%LPD*%
G04 APERTURE LIST*
%ADD10C,0.150000*%
%ADD11C,0.120000*%
%ADD12C,0.100000*%
G04 APERTURE END LIST*
D10*
X141160714Y-66302380D02*
X141160714Y-65302380D01*
X141494047Y-66016666D01*
X141827380Y-65302380D01*
X141827380Y-66302380D01*
X142303571Y-65778571D02*
X142636904Y-65778571D01*
X142779761Y-66302380D02*
X142303571Y-66302380D01*
X142303571Y-65302380D01*
X142779761Y-65302380D01*
X143732142Y-65350000D02*
X143636904Y-65302380D01*
X143494047Y-65302380D01*
X143351190Y-65350000D01*
X143255952Y-65445238D01*
X143208333Y-65540476D01*
X143160714Y-65730952D01*
X143160714Y-65873809D01*
X143208333Y-66064285D01*
X143255952Y-66159523D01*
X143351190Y-66254761D01*
X143494047Y-66302380D01*
X143589285Y-66302380D01*
X143732142Y-66254761D01*
X143779761Y-66207142D01*
X143779761Y-65873809D01*
X143589285Y-65873809D01*
X144160714Y-66016666D02*
X144636904Y-66016666D01*
X144065476Y-66302380D02*
X144398809Y-65302380D01*
X144732142Y-66302380D01*
X140994047Y-67952380D02*
X140994047Y-66952380D01*
X141232142Y-66952380D01*
X141375000Y-67000000D01*
X141470238Y-67095238D01*
X141517857Y-67190476D01*
X141565476Y-67380952D01*
X141565476Y-67523809D01*
X141517857Y-67714285D01*
X141470238Y-67809523D01*
X141375000Y-67904761D01*
X141232142Y-67952380D01*
X140994047Y-67952380D01*
X142565476Y-67952380D02*
X142232142Y-67476190D01*
X141994047Y-67952380D02*
X141994047Y-66952380D01*
X142375000Y-66952380D01*
X142470238Y-67000000D01*
X142517857Y-67047619D01*
X142565476Y-67142857D01*
X142565476Y-67285714D01*
X142517857Y-67380952D01*
X142470238Y-67428571D01*
X142375000Y-67476190D01*
X141994047Y-67476190D01*
X142994047Y-67952380D02*
X142994047Y-66952380D01*
X143327380Y-66952380D02*
X143660714Y-67952380D01*
X143994047Y-66952380D01*
X144327380Y-67428571D02*
X144660714Y-67428571D01*
X144803571Y-67952380D02*
X144327380Y-67952380D01*
X144327380Y-66952380D01*
X144803571Y-66952380D01*
X118729285Y-67127380D02*
X118729285Y-66127380D01*
X119062619Y-66841666D01*
X119395952Y-66127380D01*
X119395952Y-67127380D01*
X119824523Y-67079761D02*
X119967380Y-67127380D01*
X120205476Y-67127380D01*
X120300714Y-67079761D01*
X120348333Y-67032142D01*
X120395952Y-66936904D01*
X120395952Y-66841666D01*
X120348333Y-66746428D01*
X120300714Y-66698809D01*
X120205476Y-66651190D01*
X120015000Y-66603571D01*
X119919761Y-66555952D01*
X119872142Y-66508333D01*
X119824523Y-66413095D01*
X119824523Y-66317857D01*
X119872142Y-66222619D01*
X119919761Y-66175000D01*
X120015000Y-66127380D01*
X120253095Y-66127380D01*
X120395952Y-66175000D01*
X120729285Y-66127380D02*
X121395952Y-67127380D01*
X121395952Y-66127380D02*
X120729285Y-67127380D01*
X124683095Y-89987380D02*
X124683095Y-88987380D01*
X125016428Y-89701666D01*
X125349761Y-88987380D01*
X125349761Y-89987380D01*
X125778333Y-89939761D02*
X125921190Y-89987380D01*
X126159285Y-89987380D01*
X126254523Y-89939761D01*
X126302142Y-89892142D01*
X126349761Y-89796904D01*
X126349761Y-89701666D01*
X126302142Y-89606428D01*
X126254523Y-89558809D01*
X126159285Y-89511190D01*
X125968809Y-89463571D01*
X125873571Y-89415952D01*
X125825952Y-89368333D01*
X125778333Y-89273095D01*
X125778333Y-89177857D01*
X125825952Y-89082619D01*
X125873571Y-89035000D01*
X125968809Y-88987380D01*
X126206904Y-88987380D01*
X126349761Y-89035000D01*
X126683095Y-88987380D02*
X127349761Y-89987380D01*
X127349761Y-88987380D02*
X126683095Y-89987380D01*
X128492619Y-89987380D02*
X128492619Y-88987380D01*
X128825952Y-89701666D01*
X129159285Y-88987380D01*
X129159285Y-89987380D01*
X130016428Y-89939761D02*
X129921190Y-89987380D01*
X129730714Y-89987380D01*
X129635476Y-89939761D01*
X129587857Y-89844523D01*
X129587857Y-89463571D01*
X129635476Y-89368333D01*
X129730714Y-89320714D01*
X129921190Y-89320714D01*
X130016428Y-89368333D01*
X130064047Y-89463571D01*
X130064047Y-89558809D01*
X129587857Y-89654047D01*
X130921190Y-89320714D02*
X130921190Y-90130238D01*
X130873571Y-90225476D01*
X130825952Y-90273095D01*
X130730714Y-90320714D01*
X130587857Y-90320714D01*
X130492619Y-90273095D01*
X130921190Y-89939761D02*
X130825952Y-89987380D01*
X130635476Y-89987380D01*
X130540238Y-89939761D01*
X130492619Y-89892142D01*
X130445000Y-89796904D01*
X130445000Y-89511190D01*
X130492619Y-89415952D01*
X130540238Y-89368333D01*
X130635476Y-89320714D01*
X130825952Y-89320714D01*
X130921190Y-89368333D01*
X131825952Y-89987380D02*
X131825952Y-89463571D01*
X131778333Y-89368333D01*
X131683095Y-89320714D01*
X131492619Y-89320714D01*
X131397380Y-89368333D01*
X131825952Y-89939761D02*
X131730714Y-89987380D01*
X131492619Y-89987380D01*
X131397380Y-89939761D01*
X131349761Y-89844523D01*
X131349761Y-89749285D01*
X131397380Y-89654047D01*
X131492619Y-89606428D01*
X131730714Y-89606428D01*
X131825952Y-89558809D01*
X133016428Y-89701666D02*
X133492619Y-89701666D01*
X132921190Y-89987380D02*
X133254523Y-88987380D01*
X133587857Y-89987380D01*
X134349761Y-89987380D02*
X134349761Y-88987380D01*
X134349761Y-89939761D02*
X134254523Y-89987380D01*
X134064047Y-89987380D01*
X133968809Y-89939761D01*
X133921190Y-89892142D01*
X133873571Y-89796904D01*
X133873571Y-89511190D01*
X133921190Y-89415952D01*
X133968809Y-89368333D01*
X134064047Y-89320714D01*
X134254523Y-89320714D01*
X134349761Y-89368333D01*
X135254523Y-89987380D02*
X135254523Y-89463571D01*
X135206904Y-89368333D01*
X135111666Y-89320714D01*
X134921190Y-89320714D01*
X134825952Y-89368333D01*
X135254523Y-89939761D02*
X135159285Y-89987380D01*
X134921190Y-89987380D01*
X134825952Y-89939761D01*
X134778333Y-89844523D01*
X134778333Y-89749285D01*
X134825952Y-89654047D01*
X134921190Y-89606428D01*
X135159285Y-89606428D01*
X135254523Y-89558809D01*
X135730714Y-89320714D02*
X135730714Y-90320714D01*
X135730714Y-89368333D02*
X135825952Y-89320714D01*
X136016428Y-89320714D01*
X136111666Y-89368333D01*
X136159285Y-89415952D01*
X136206904Y-89511190D01*
X136206904Y-89796904D01*
X136159285Y-89892142D01*
X136111666Y-89939761D01*
X136016428Y-89987380D01*
X135825952Y-89987380D01*
X135730714Y-89939761D01*
X136492619Y-89320714D02*
X136873571Y-89320714D01*
X136635476Y-88987380D02*
X136635476Y-89844523D01*
X136683095Y-89939761D01*
X136778333Y-89987380D01*
X136873571Y-89987380D01*
X137587857Y-89939761D02*
X137492619Y-89987380D01*
X137302142Y-89987380D01*
X137206904Y-89939761D01*
X137159285Y-89844523D01*
X137159285Y-89463571D01*
X137206904Y-89368333D01*
X137302142Y-89320714D01*
X137492619Y-89320714D01*
X137587857Y-89368333D01*
X137635476Y-89463571D01*
X137635476Y-89558809D01*
X137159285Y-89654047D01*
X138064047Y-89987380D02*
X138064047Y-89320714D01*
X138064047Y-89511190D02*
X138111666Y-89415952D01*
X138159285Y-89368333D01*
X138254523Y-89320714D01*
X138349761Y-89320714D01*
D11*
X129075000Y-66949000D02*
X129075000Y-66635000D01*
X129075000Y-69255000D02*
X129075000Y-68941000D01*
X133895000Y-66949000D02*
X133895000Y-66635000D01*
X133895000Y-69255000D02*
X133895000Y-68941000D01*
X133895000Y-66635000D02*
X129075000Y-66635000D01*
X133895000Y-69255000D02*
X129075000Y-69255000D01*
X136695000Y-70365000D02*
X126195000Y-70365000D01*
X136695000Y-88385000D02*
X136695000Y-70365000D01*
X126195000Y-88385000D02*
X136695000Y-88385000D01*
X126195000Y-70365000D02*
X126195000Y-88385000D01*
X133695000Y-70425000D02*
X132445000Y-70425000D01*
X133695000Y-88325000D02*
X133695000Y-70425000D01*
X129195000Y-88325000D02*
X133695000Y-88325000D01*
X129195000Y-70425000D02*
X129195000Y-88325000D01*
X130445000Y-70425000D02*
X129195000Y-70425000D01*
X132445000Y-70425000D02*
G75*
G02X130445000Y-70425000I-1000000J0D01*
G01*
X110805000Y-59620000D02*
X123145000Y-59620000D01*
X123145000Y-59620000D02*
X123145000Y-90590000D01*
X123145000Y-90590000D02*
X110805000Y-90590000D01*
X152085000Y-90590000D02*
X139745000Y-90590000D01*
X139745000Y-90590000D02*
X139745000Y-59620000D01*
X139745000Y-59620000D02*
X152085000Y-59620000D01*
X133505000Y-65830000D02*
X133505000Y-63710000D01*
X133505000Y-63710000D02*
X129385000Y-63710000D01*
X129385000Y-63710000D02*
X129385000Y-65830000D01*
X129385000Y-65830000D02*
X133505000Y-65830000D01*
X134275000Y-64770000D02*
X133505000Y-64770000D01*
X128615000Y-64770000D02*
X129385000Y-64770000D01*
X132845000Y-65830000D02*
X132845000Y-63710000D01*
X132845000Y-62147000D02*
X132845000Y-60027000D01*
X128615000Y-61087000D02*
X129385000Y-61087000D01*
X134275000Y-61087000D02*
X133505000Y-61087000D01*
X129385000Y-62147000D02*
X133505000Y-62147000D01*
X129385000Y-60027000D02*
X129385000Y-62147000D01*
X133505000Y-60027000D02*
X129385000Y-60027000D01*
X133505000Y-62147000D02*
X133505000Y-60027000D01*
D12*
X131351666Y-68865714D02*
X131313571Y-68903809D01*
X131199285Y-68941904D01*
X131123095Y-68941904D01*
X131008809Y-68903809D01*
X130932619Y-68827619D01*
X130894523Y-68751428D01*
X130856428Y-68599047D01*
X130856428Y-68484761D01*
X130894523Y-68332380D01*
X130932619Y-68256190D01*
X131008809Y-68180000D01*
X131123095Y-68141904D01*
X131199285Y-68141904D01*
X131313571Y-68180000D01*
X131351666Y-68218095D01*
X132113571Y-68941904D02*
X131656428Y-68941904D01*
X131885000Y-68941904D02*
X131885000Y-68141904D01*
X131808809Y-68256190D01*
X131732619Y-68332380D01*
X131656428Y-68370476D01*
X130206904Y-67671904D02*
X129749761Y-67671904D01*
X129978333Y-67671904D02*
X129978333Y-66871904D01*
X129902142Y-66986190D01*
X129825952Y-67062380D01*
X129749761Y-67100476D01*
X130702142Y-66871904D02*
X130778333Y-66871904D01*
X130854523Y-66910000D01*
X130892619Y-66948095D01*
X130930714Y-67024285D01*
X130968809Y-67176666D01*
X130968809Y-67367142D01*
X130930714Y-67519523D01*
X130892619Y-67595714D01*
X130854523Y-67633809D01*
X130778333Y-67671904D01*
X130702142Y-67671904D01*
X130625952Y-67633809D01*
X130587857Y-67595714D01*
X130549761Y-67519523D01*
X130511666Y-67367142D01*
X130511666Y-67176666D01*
X130549761Y-67024285D01*
X130587857Y-66948095D01*
X130625952Y-66910000D01*
X130702142Y-66871904D01*
X131464047Y-66871904D02*
X131540238Y-66871904D01*
X131616428Y-66910000D01*
X131654523Y-66948095D01*
X131692619Y-67024285D01*
X131730714Y-67176666D01*
X131730714Y-67367142D01*
X131692619Y-67519523D01*
X131654523Y-67595714D01*
X131616428Y-67633809D01*
X131540238Y-67671904D01*
X131464047Y-67671904D01*
X131387857Y-67633809D01*
X131349761Y-67595714D01*
X131311666Y-67519523D01*
X131273571Y-67367142D01*
X131273571Y-67176666D01*
X131311666Y-67024285D01*
X131349761Y-66948095D01*
X131387857Y-66910000D01*
X131464047Y-66871904D01*
X132073571Y-67138571D02*
X132073571Y-67671904D01*
X132073571Y-67214761D02*
X132111666Y-67176666D01*
X132187857Y-67138571D01*
X132302142Y-67138571D01*
X132378333Y-67176666D01*
X132416428Y-67252857D01*
X132416428Y-67671904D01*
X133064047Y-67252857D02*
X132797380Y-67252857D01*
X132797380Y-67671904D02*
X132797380Y-66871904D01*
X133178333Y-66871904D01*
D10*
X130683095Y-73747380D02*
X130683095Y-74556904D01*
X130730714Y-74652142D01*
X130778333Y-74699761D01*
X130873571Y-74747380D01*
X131064047Y-74747380D01*
X131159285Y-74699761D01*
X131206904Y-74652142D01*
X131254523Y-74556904D01*
X131254523Y-73747380D01*
X132254523Y-74747380D02*
X131683095Y-74747380D01*
X131968809Y-74747380D02*
X131968809Y-73747380D01*
X131873571Y-73890238D01*
X131778333Y-73985476D01*
X131683095Y-74033095D01*
X130897380Y-82541666D02*
X130897380Y-81875000D01*
X131897380Y-82303571D01*
X131230714Y-81065476D02*
X131897380Y-81065476D01*
X130849761Y-81303571D02*
X131564047Y-81541666D01*
X131564047Y-80922619D01*
X131897380Y-80541666D02*
X130897380Y-80541666D01*
X131373571Y-80541666D02*
X131373571Y-79970238D01*
X131897380Y-79970238D02*
X130897380Y-79970238D01*
X131802142Y-78922619D02*
X131849761Y-78970238D01*
X131897380Y-79113095D01*
X131897380Y-79208333D01*
X131849761Y-79351190D01*
X131754523Y-79446428D01*
X131659285Y-79494047D01*
X131468809Y-79541666D01*
X131325952Y-79541666D01*
X131135476Y-79494047D01*
X131040238Y-79446428D01*
X130945000Y-79351190D01*
X130897380Y-79208333D01*
X130897380Y-79113095D01*
X130945000Y-78970238D01*
X130992619Y-78922619D01*
X130897380Y-78636904D02*
X130897380Y-78065476D01*
X131897380Y-78351190D02*
X130897380Y-78351190D01*
X130897380Y-77541666D02*
X130897380Y-77446428D01*
X130945000Y-77351190D01*
X130992619Y-77303571D01*
X131087857Y-77255952D01*
X131278333Y-77208333D01*
X131516428Y-77208333D01*
X131706904Y-77255952D01*
X131802142Y-77303571D01*
X131849761Y-77351190D01*
X131897380Y-77446428D01*
X131897380Y-77541666D01*
X131849761Y-77636904D01*
X131802142Y-77684523D01*
X131706904Y-77732142D01*
X131516428Y-77779761D01*
X131278333Y-77779761D01*
X131087857Y-77732142D01*
X130992619Y-77684523D01*
X130945000Y-77636904D01*
X130897380Y-77541666D01*
X131230714Y-76351190D02*
X131897380Y-76351190D01*
X130849761Y-76589285D02*
X131564047Y-76827380D01*
X131564047Y-76208333D01*
D12*
X130854523Y-65131904D02*
X130854523Y-64331904D01*
X131045000Y-64331904D01*
X131159285Y-64370000D01*
X131235476Y-64446190D01*
X131273571Y-64522380D01*
X131311666Y-64674761D01*
X131311666Y-64789047D01*
X131273571Y-64941428D01*
X131235476Y-65017619D01*
X131159285Y-65093809D01*
X131045000Y-65131904D01*
X130854523Y-65131904D01*
X131616428Y-64408095D02*
X131654523Y-64370000D01*
X131730714Y-64331904D01*
X131921190Y-64331904D01*
X131997380Y-64370000D01*
X132035476Y-64408095D01*
X132073571Y-64484285D01*
X132073571Y-64560476D01*
X132035476Y-64674761D01*
X131578333Y-65131904D01*
X132073571Y-65131904D01*
X129787857Y-63226904D02*
X129330714Y-63226904D01*
X129559285Y-63226904D02*
X129559285Y-62426904D01*
X129483095Y-62541190D01*
X129406904Y-62617380D01*
X129330714Y-62655476D01*
X130130714Y-62693571D02*
X130130714Y-63226904D01*
X130130714Y-62769761D02*
X130168809Y-62731666D01*
X130245000Y-62693571D01*
X130359285Y-62693571D01*
X130435476Y-62731666D01*
X130473571Y-62807857D01*
X130473571Y-63226904D01*
X131235476Y-62426904D02*
X130854523Y-62426904D01*
X130816428Y-62807857D01*
X130854523Y-62769761D01*
X130930714Y-62731666D01*
X131121190Y-62731666D01*
X131197380Y-62769761D01*
X131235476Y-62807857D01*
X131273571Y-62884047D01*
X131273571Y-63074523D01*
X131235476Y-63150714D01*
X131197380Y-63188809D01*
X131121190Y-63226904D01*
X130930714Y-63226904D01*
X130854523Y-63188809D01*
X130816428Y-63150714D01*
X131540238Y-62426904D02*
X132073571Y-62426904D01*
X131730714Y-63226904D01*
X132797380Y-63226904D02*
X132340238Y-63226904D01*
X132568809Y-63226904D02*
X132568809Y-62426904D01*
X132492619Y-62541190D01*
X132416428Y-62617380D01*
X132340238Y-62655476D01*
X133559285Y-63226904D02*
X133102142Y-63226904D01*
X133330714Y-63226904D02*
X133330714Y-62426904D01*
X133254523Y-62541190D01*
X133178333Y-62617380D01*
X133102142Y-62655476D01*
X130854523Y-61448904D02*
X130854523Y-60648904D01*
X131045000Y-60648904D01*
X131159285Y-60687000D01*
X131235476Y-60763190D01*
X131273571Y-60839380D01*
X131311666Y-60991761D01*
X131311666Y-61106047D01*
X131273571Y-61258428D01*
X131235476Y-61334619D01*
X131159285Y-61410809D01*
X131045000Y-61448904D01*
X130854523Y-61448904D01*
X132073571Y-61448904D02*
X131616428Y-61448904D01*
X131845000Y-61448904D02*
X131845000Y-60648904D01*
X131768809Y-60763190D01*
X131692619Y-60839380D01*
X131616428Y-60877476D01*
M02*
