M48
INCH,TZ
T1C0.0315
T2C0.0394
T3C0.1260
%
G90
G05
T1
X50250Y-28250
X50250Y-29250
X50250Y-30250
X50250Y-31250
X50250Y-32250
X50250Y-33250
X50250Y-34250
X53250Y-28250
X53250Y-29250
X53250Y-30250
X53250Y-31250
X53250Y-32250
X53250Y-33250
X53250Y-34250
X50250Y-25500
X53250Y-25500
X50781Y-26750
X52750Y-26750
X50250Y-24050
X53250Y-24050
T2
X55750Y-27388
X55750Y-28478
X55750Y-29569
X55750Y-30659
X55750Y-31750
X56868Y-27933
X56868Y-29024
X56868Y-30114
X56868Y-31205
X46632Y-27933
X46632Y-29024
X46632Y-30114
X46632Y-31205
X47750Y-27388
X47750Y-28478
X47750Y-29569
X47750Y-30659
X47750Y-31750
T3
X56309Y-24648
X56309Y-34490
X47191Y-24648
X47191Y-34490
T0
M30
