G04 #@! TF.GenerationSoftware,KiCad,Pcbnew,(5.1.5)-3*
G04 #@! TF.CreationDate,2020-12-08T02:28:16+01:00*
G04 #@! TF.ProjectId,MSX Mega Adapter,4d535820-4d65-4676-9120-416461707465,rev?*
G04 #@! TF.SameCoordinates,Original*
G04 #@! TF.FileFunction,Copper,L2,Bot*
G04 #@! TF.FilePolarity,Positive*
%FSLAX46Y46*%
G04 Gerber Fmt 4.6, Leading zero omitted, Abs format (unit mm)*
G04 Created by KiCad (PCBNEW (5.1.5)-3) date 2020-12-08 02:28:16*
%MOMM*%
%LPD*%
G04 APERTURE LIST*
%ADD10C,1.600000*%
%ADD11O,2.400000X1.600000*%
%ADD12R,2.400000X1.600000*%
%ADD13R,1.600000X1.600000*%
%ADD14C,4.000000*%
%ADD15O,1.600000X1.600000*%
%ADD16C,0.254000*%
G04 APERTURE END LIST*
D10*
X128985000Y-67945000D03*
X133985000Y-67945000D03*
D11*
X135255000Y-71755000D03*
X127635000Y-86995000D03*
X135255000Y-74295000D03*
X127635000Y-84455000D03*
X135255000Y-76835000D03*
X127635000Y-81915000D03*
X135255000Y-79375000D03*
X127635000Y-79375000D03*
X135255000Y-81915000D03*
X127635000Y-76835000D03*
X135255000Y-84455000D03*
X127635000Y-74295000D03*
X135255000Y-86995000D03*
D12*
X127635000Y-71755000D03*
D13*
X121285000Y-80645000D03*
D10*
X121285000Y-77875000D03*
X121285000Y-75105000D03*
X121285000Y-72335000D03*
X121285000Y-69565000D03*
X118445000Y-79260000D03*
X118445000Y-76490000D03*
X118445000Y-73720000D03*
X118445000Y-70950000D03*
D14*
X119865000Y-62605000D03*
X119865000Y-87605000D03*
D13*
X141605000Y-80645000D03*
D10*
X141605000Y-77875000D03*
X141605000Y-75105000D03*
X141605000Y-72335000D03*
X141605000Y-69565000D03*
X144445000Y-79260000D03*
X144445000Y-76490000D03*
X144445000Y-73720000D03*
X144445000Y-70950000D03*
D14*
X143025000Y-87605000D03*
X143025000Y-62605000D03*
D13*
X135255000Y-64770000D03*
D15*
X127635000Y-64770000D03*
X127635000Y-61087000D03*
D13*
X135255000Y-61087000D03*
D16*
G36*
X126955273Y-59815320D02*
G01*
X126720241Y-59972363D01*
X126520363Y-60172241D01*
X126363320Y-60407273D01*
X126255147Y-60668426D01*
X126200000Y-60945665D01*
X126200000Y-61228335D01*
X126255147Y-61505574D01*
X126363320Y-61766727D01*
X126520363Y-62001759D01*
X126720241Y-62201637D01*
X126955273Y-62358680D01*
X127216426Y-62466853D01*
X127493665Y-62522000D01*
X127776335Y-62522000D01*
X128053574Y-62466853D01*
X128314727Y-62358680D01*
X128549759Y-62201637D01*
X128749637Y-62001759D01*
X128906680Y-61766727D01*
X129014853Y-61505574D01*
X129070000Y-61228335D01*
X129070000Y-60945665D01*
X129014853Y-60668426D01*
X128906680Y-60407273D01*
X128749637Y-60172241D01*
X128549759Y-59972363D01*
X128314727Y-59815320D01*
X128193244Y-59765000D01*
X134090104Y-59765000D01*
X134003815Y-59835815D01*
X133924463Y-59932506D01*
X133865498Y-60042820D01*
X133829188Y-60162518D01*
X133816928Y-60287000D01*
X133816928Y-61887000D01*
X133829188Y-62011482D01*
X133865498Y-62131180D01*
X133924463Y-62241494D01*
X134003815Y-62338185D01*
X134100506Y-62417537D01*
X134210820Y-62476502D01*
X134330518Y-62512812D01*
X134455000Y-62525072D01*
X136055000Y-62525072D01*
X136179482Y-62512812D01*
X136299180Y-62476502D01*
X136409494Y-62417537D01*
X136497302Y-62345475D01*
X140390000Y-62345475D01*
X140390000Y-62864525D01*
X140491261Y-63373601D01*
X140689893Y-63853141D01*
X140978262Y-64284715D01*
X141345285Y-64651738D01*
X141776859Y-64940107D01*
X142256399Y-65138739D01*
X142765475Y-65240000D01*
X143284525Y-65240000D01*
X143793601Y-65138739D01*
X144273141Y-64940107D01*
X144704715Y-64651738D01*
X145071738Y-64284715D01*
X145360107Y-63853141D01*
X145558739Y-63373601D01*
X145660000Y-62864525D01*
X145660000Y-62345475D01*
X145558739Y-61836399D01*
X145360107Y-61356859D01*
X145071738Y-60925285D01*
X144704715Y-60558262D01*
X144273141Y-60269893D01*
X143793601Y-60071261D01*
X143284525Y-59970000D01*
X142765475Y-59970000D01*
X142256399Y-60071261D01*
X141776859Y-60269893D01*
X141345285Y-60558262D01*
X140978262Y-60925285D01*
X140689893Y-61356859D01*
X140491261Y-61836399D01*
X140390000Y-62345475D01*
X136497302Y-62345475D01*
X136506185Y-62338185D01*
X136585537Y-62241494D01*
X136644502Y-62131180D01*
X136680812Y-62011482D01*
X136693072Y-61887000D01*
X136693072Y-60287000D01*
X136680812Y-60162518D01*
X136644502Y-60042820D01*
X136585537Y-59932506D01*
X136506185Y-59835815D01*
X136419896Y-59765000D01*
X145380280Y-59765000D01*
X145523109Y-59779005D01*
X145627101Y-59810402D01*
X145723014Y-59861399D01*
X145807194Y-59930055D01*
X145876440Y-60013758D01*
X145928105Y-60109311D01*
X145960227Y-60213078D01*
X145975000Y-60353641D01*
X145975001Y-89500270D01*
X145960995Y-89643109D01*
X145929599Y-89747099D01*
X145878601Y-89843013D01*
X145809941Y-89927199D01*
X145726243Y-89996439D01*
X145630689Y-90048105D01*
X145526922Y-90080227D01*
X145386359Y-90095000D01*
X143899196Y-90095000D01*
X144273141Y-89940107D01*
X144704715Y-89651738D01*
X145071738Y-89284715D01*
X145360107Y-88853141D01*
X145558739Y-88373601D01*
X145660000Y-87864525D01*
X145660000Y-87345475D01*
X145558739Y-86836399D01*
X145360107Y-86356859D01*
X145071738Y-85925285D01*
X144704715Y-85558262D01*
X144273141Y-85269893D01*
X143793601Y-85071261D01*
X143284525Y-84970000D01*
X142765475Y-84970000D01*
X142256399Y-85071261D01*
X141776859Y-85269893D01*
X141345285Y-85558262D01*
X140978262Y-85925285D01*
X140689893Y-86356859D01*
X140491261Y-86836399D01*
X140390000Y-87345475D01*
X140390000Y-87864525D01*
X140491261Y-88373601D01*
X140689893Y-88853141D01*
X140978262Y-89284715D01*
X141345285Y-89651738D01*
X141776859Y-89940107D01*
X142150804Y-90095000D01*
X120739196Y-90095000D01*
X121113141Y-89940107D01*
X121544715Y-89651738D01*
X121911738Y-89284715D01*
X122200107Y-88853141D01*
X122398739Y-88373601D01*
X122500000Y-87864525D01*
X122500000Y-87345475D01*
X122499715Y-87344039D01*
X125843096Y-87344039D01*
X125860633Y-87426818D01*
X125971285Y-87686646D01*
X126130500Y-87919895D01*
X126332161Y-88117601D01*
X126568517Y-88272166D01*
X126830486Y-88377650D01*
X127108000Y-88430000D01*
X127508000Y-88430000D01*
X127508000Y-87122000D01*
X127762000Y-87122000D01*
X127762000Y-88430000D01*
X128162000Y-88430000D01*
X128439514Y-88377650D01*
X128701483Y-88272166D01*
X128937839Y-88117601D01*
X129139500Y-87919895D01*
X129298715Y-87686646D01*
X129409367Y-87426818D01*
X129426904Y-87344039D01*
X129304915Y-87122000D01*
X127762000Y-87122000D01*
X127508000Y-87122000D01*
X125965085Y-87122000D01*
X125843096Y-87344039D01*
X122499715Y-87344039D01*
X122430287Y-86995000D01*
X133413057Y-86995000D01*
X133440764Y-87276309D01*
X133522818Y-87546808D01*
X133656068Y-87796101D01*
X133835392Y-88014608D01*
X134053899Y-88193932D01*
X134303192Y-88327182D01*
X134573691Y-88409236D01*
X134784508Y-88430000D01*
X135725492Y-88430000D01*
X135936309Y-88409236D01*
X136206808Y-88327182D01*
X136456101Y-88193932D01*
X136674608Y-88014608D01*
X136853932Y-87796101D01*
X136987182Y-87546808D01*
X137069236Y-87276309D01*
X137096943Y-86995000D01*
X137069236Y-86713691D01*
X136987182Y-86443192D01*
X136853932Y-86193899D01*
X136674608Y-85975392D01*
X136456101Y-85796068D01*
X136328259Y-85727735D01*
X136557839Y-85577601D01*
X136759500Y-85379895D01*
X136918715Y-85146646D01*
X137029367Y-84886818D01*
X137046904Y-84804039D01*
X136924915Y-84582000D01*
X135382000Y-84582000D01*
X135382000Y-84602000D01*
X135128000Y-84602000D01*
X135128000Y-84582000D01*
X133585085Y-84582000D01*
X133463096Y-84804039D01*
X133480633Y-84886818D01*
X133591285Y-85146646D01*
X133750500Y-85379895D01*
X133952161Y-85577601D01*
X134181741Y-85727735D01*
X134053899Y-85796068D01*
X133835392Y-85975392D01*
X133656068Y-86193899D01*
X133522818Y-86443192D01*
X133440764Y-86713691D01*
X133413057Y-86995000D01*
X122430287Y-86995000D01*
X122398739Y-86836399D01*
X122200107Y-86356859D01*
X121911738Y-85925285D01*
X121544715Y-85558262D01*
X121113141Y-85269893D01*
X120633601Y-85071261D01*
X120124525Y-84970000D01*
X119605475Y-84970000D01*
X119096399Y-85071261D01*
X118616859Y-85269893D01*
X118185285Y-85558262D01*
X117818262Y-85925285D01*
X117529893Y-86356859D01*
X117331261Y-86836399D01*
X117230000Y-87345475D01*
X117230000Y-87864525D01*
X117331261Y-88373601D01*
X117529893Y-88853141D01*
X117818262Y-89284715D01*
X118185285Y-89651738D01*
X118616859Y-89940107D01*
X118990804Y-90095000D01*
X117509720Y-90095000D01*
X117366891Y-90080995D01*
X117262901Y-90049599D01*
X117166987Y-89998601D01*
X117082801Y-89929941D01*
X117013561Y-89846243D01*
X116961895Y-89750689D01*
X116929773Y-89646922D01*
X116915000Y-89506359D01*
X116915000Y-84455000D01*
X125793057Y-84455000D01*
X125820764Y-84736309D01*
X125902818Y-85006808D01*
X126036068Y-85256101D01*
X126215392Y-85474608D01*
X126433899Y-85653932D01*
X126561741Y-85722265D01*
X126332161Y-85872399D01*
X126130500Y-86070105D01*
X125971285Y-86303354D01*
X125860633Y-86563182D01*
X125843096Y-86645961D01*
X125965085Y-86868000D01*
X127508000Y-86868000D01*
X127508000Y-86848000D01*
X127762000Y-86848000D01*
X127762000Y-86868000D01*
X129304915Y-86868000D01*
X129426904Y-86645961D01*
X129409367Y-86563182D01*
X129298715Y-86303354D01*
X129139500Y-86070105D01*
X128937839Y-85872399D01*
X128708259Y-85722265D01*
X128836101Y-85653932D01*
X129054608Y-85474608D01*
X129233932Y-85256101D01*
X129367182Y-85006808D01*
X129449236Y-84736309D01*
X129476943Y-84455000D01*
X129449236Y-84173691D01*
X129367182Y-83903192D01*
X129233932Y-83653899D01*
X129054608Y-83435392D01*
X128836101Y-83256068D01*
X128708259Y-83187735D01*
X128937839Y-83037601D01*
X129139500Y-82839895D01*
X129298715Y-82606646D01*
X129409367Y-82346818D01*
X129426904Y-82264039D01*
X129304915Y-82042000D01*
X127762000Y-82042000D01*
X127762000Y-82062000D01*
X127508000Y-82062000D01*
X127508000Y-82042000D01*
X125965085Y-82042000D01*
X125843096Y-82264039D01*
X125860633Y-82346818D01*
X125971285Y-82606646D01*
X126130500Y-82839895D01*
X126332161Y-83037601D01*
X126561741Y-83187735D01*
X126433899Y-83256068D01*
X126215392Y-83435392D01*
X126036068Y-83653899D01*
X125902818Y-83903192D01*
X125820764Y-84173691D01*
X125793057Y-84455000D01*
X116915000Y-84455000D01*
X116915000Y-73578665D01*
X117010000Y-73578665D01*
X117010000Y-73861335D01*
X117065147Y-74138574D01*
X117173320Y-74399727D01*
X117330363Y-74634759D01*
X117530241Y-74834637D01*
X117765273Y-74991680D01*
X118026426Y-75099853D01*
X118052301Y-75105000D01*
X118026426Y-75110147D01*
X117765273Y-75218320D01*
X117530241Y-75375363D01*
X117330363Y-75575241D01*
X117173320Y-75810273D01*
X117065147Y-76071426D01*
X117010000Y-76348665D01*
X117010000Y-76631335D01*
X117065147Y-76908574D01*
X117173320Y-77169727D01*
X117330363Y-77404759D01*
X117530241Y-77604637D01*
X117765273Y-77761680D01*
X118026426Y-77869853D01*
X118052301Y-77875000D01*
X118026426Y-77880147D01*
X117765273Y-77988320D01*
X117530241Y-78145363D01*
X117330363Y-78345241D01*
X117173320Y-78580273D01*
X117065147Y-78841426D01*
X117010000Y-79118665D01*
X117010000Y-79401335D01*
X117065147Y-79678574D01*
X117173320Y-79939727D01*
X117330363Y-80174759D01*
X117530241Y-80374637D01*
X117765273Y-80531680D01*
X118026426Y-80639853D01*
X118303665Y-80695000D01*
X118586335Y-80695000D01*
X118863574Y-80639853D01*
X119124727Y-80531680D01*
X119359759Y-80374637D01*
X119559637Y-80174759D01*
X119716680Y-79939727D01*
X119755917Y-79845000D01*
X119846928Y-79845000D01*
X119846928Y-81445000D01*
X119859188Y-81569482D01*
X119895498Y-81689180D01*
X119954463Y-81799494D01*
X120033815Y-81896185D01*
X120130506Y-81975537D01*
X120240820Y-82034502D01*
X120360518Y-82070812D01*
X120485000Y-82083072D01*
X122085000Y-82083072D01*
X122209482Y-82070812D01*
X122329180Y-82034502D01*
X122439494Y-81975537D01*
X122513258Y-81915000D01*
X133413057Y-81915000D01*
X133440764Y-82196309D01*
X133522818Y-82466808D01*
X133656068Y-82716101D01*
X133835392Y-82934608D01*
X134053899Y-83113932D01*
X134181741Y-83182265D01*
X133952161Y-83332399D01*
X133750500Y-83530105D01*
X133591285Y-83763354D01*
X133480633Y-84023182D01*
X133463096Y-84105961D01*
X133585085Y-84328000D01*
X135128000Y-84328000D01*
X135128000Y-84308000D01*
X135382000Y-84308000D01*
X135382000Y-84328000D01*
X136924915Y-84328000D01*
X137046904Y-84105961D01*
X137029367Y-84023182D01*
X136918715Y-83763354D01*
X136759500Y-83530105D01*
X136557839Y-83332399D01*
X136328259Y-83182265D01*
X136456101Y-83113932D01*
X136674608Y-82934608D01*
X136853932Y-82716101D01*
X136987182Y-82466808D01*
X137069236Y-82196309D01*
X137096943Y-81915000D01*
X137069236Y-81633691D01*
X136987182Y-81363192D01*
X136853932Y-81113899D01*
X136674608Y-80895392D01*
X136456101Y-80716068D01*
X136328259Y-80647735D01*
X136557839Y-80497601D01*
X136759500Y-80299895D01*
X136918715Y-80066646D01*
X137013106Y-79845000D01*
X140166928Y-79845000D01*
X140166928Y-81445000D01*
X140179188Y-81569482D01*
X140215498Y-81689180D01*
X140274463Y-81799494D01*
X140353815Y-81896185D01*
X140450506Y-81975537D01*
X140560820Y-82034502D01*
X140680518Y-82070812D01*
X140805000Y-82083072D01*
X142405000Y-82083072D01*
X142529482Y-82070812D01*
X142649180Y-82034502D01*
X142759494Y-81975537D01*
X142856185Y-81896185D01*
X142935537Y-81799494D01*
X142994502Y-81689180D01*
X143030812Y-81569482D01*
X143043072Y-81445000D01*
X143043072Y-79845000D01*
X143030812Y-79720518D01*
X142994502Y-79600820D01*
X142935537Y-79490506D01*
X142856185Y-79393815D01*
X142759494Y-79314463D01*
X142649180Y-79255498D01*
X142529482Y-79219188D01*
X142405000Y-79206928D01*
X142139275Y-79206928D01*
X142284727Y-79146680D01*
X142519759Y-78989637D01*
X142719637Y-78789759D01*
X142876680Y-78554727D01*
X142984853Y-78293574D01*
X143040000Y-78016335D01*
X143040000Y-77733665D01*
X142984853Y-77456426D01*
X142876680Y-77195273D01*
X142719637Y-76960241D01*
X142519759Y-76760363D01*
X142284727Y-76603320D01*
X142023574Y-76495147D01*
X141997699Y-76490000D01*
X142023574Y-76484853D01*
X142284727Y-76376680D01*
X142326654Y-76348665D01*
X143010000Y-76348665D01*
X143010000Y-76631335D01*
X143065147Y-76908574D01*
X143173320Y-77169727D01*
X143330363Y-77404759D01*
X143530241Y-77604637D01*
X143765273Y-77761680D01*
X144026426Y-77869853D01*
X144052301Y-77875000D01*
X144026426Y-77880147D01*
X143765273Y-77988320D01*
X143530241Y-78145363D01*
X143330363Y-78345241D01*
X143173320Y-78580273D01*
X143065147Y-78841426D01*
X143010000Y-79118665D01*
X143010000Y-79401335D01*
X143065147Y-79678574D01*
X143173320Y-79939727D01*
X143330363Y-80174759D01*
X143530241Y-80374637D01*
X143765273Y-80531680D01*
X144026426Y-80639853D01*
X144303665Y-80695000D01*
X144586335Y-80695000D01*
X144863574Y-80639853D01*
X145124727Y-80531680D01*
X145359759Y-80374637D01*
X145559637Y-80174759D01*
X145716680Y-79939727D01*
X145824853Y-79678574D01*
X145880000Y-79401335D01*
X145880000Y-79118665D01*
X145824853Y-78841426D01*
X145716680Y-78580273D01*
X145559637Y-78345241D01*
X145359759Y-78145363D01*
X145124727Y-77988320D01*
X144863574Y-77880147D01*
X144837699Y-77875000D01*
X144863574Y-77869853D01*
X145124727Y-77761680D01*
X145359759Y-77604637D01*
X145559637Y-77404759D01*
X145716680Y-77169727D01*
X145824853Y-76908574D01*
X145880000Y-76631335D01*
X145880000Y-76348665D01*
X145824853Y-76071426D01*
X145716680Y-75810273D01*
X145559637Y-75575241D01*
X145359759Y-75375363D01*
X145124727Y-75218320D01*
X144863574Y-75110147D01*
X144835118Y-75104487D01*
X145061292Y-75023603D01*
X145186514Y-74956671D01*
X145258097Y-74712702D01*
X144445000Y-73899605D01*
X143631903Y-74712702D01*
X143703486Y-74956671D01*
X143958996Y-75077571D01*
X144061289Y-75103212D01*
X144026426Y-75110147D01*
X143765273Y-75218320D01*
X143530241Y-75375363D01*
X143330363Y-75575241D01*
X143173320Y-75810273D01*
X143065147Y-76071426D01*
X143010000Y-76348665D01*
X142326654Y-76348665D01*
X142519759Y-76219637D01*
X142719637Y-76019759D01*
X142876680Y-75784727D01*
X142984853Y-75523574D01*
X143040000Y-75246335D01*
X143040000Y-74963665D01*
X142984853Y-74686426D01*
X142876680Y-74425273D01*
X142719637Y-74190241D01*
X142519759Y-73990363D01*
X142284727Y-73833320D01*
X142181380Y-73790512D01*
X143004783Y-73790512D01*
X143046213Y-74070130D01*
X143141397Y-74336292D01*
X143208329Y-74461514D01*
X143452298Y-74533097D01*
X144265395Y-73720000D01*
X144624605Y-73720000D01*
X145437702Y-74533097D01*
X145681671Y-74461514D01*
X145802571Y-74206004D01*
X145871300Y-73931816D01*
X145885217Y-73649488D01*
X145843787Y-73369870D01*
X145748603Y-73103708D01*
X145681671Y-72978486D01*
X145437702Y-72906903D01*
X144624605Y-73720000D01*
X144265395Y-73720000D01*
X143452298Y-72906903D01*
X143208329Y-72978486D01*
X143087429Y-73233996D01*
X143018700Y-73508184D01*
X143004783Y-73790512D01*
X142181380Y-73790512D01*
X142023574Y-73725147D01*
X141997699Y-73720000D01*
X142023574Y-73714853D01*
X142284727Y-73606680D01*
X142519759Y-73449637D01*
X142719637Y-73249759D01*
X142876680Y-73014727D01*
X142984853Y-72753574D01*
X143040000Y-72476335D01*
X143040000Y-72193665D01*
X142984853Y-71916426D01*
X142876680Y-71655273D01*
X142719637Y-71420241D01*
X142519759Y-71220363D01*
X142284727Y-71063320D01*
X142023574Y-70955147D01*
X141997699Y-70950000D01*
X142023574Y-70944853D01*
X142284727Y-70836680D01*
X142326654Y-70808665D01*
X143010000Y-70808665D01*
X143010000Y-71091335D01*
X143065147Y-71368574D01*
X143173320Y-71629727D01*
X143330363Y-71864759D01*
X143530241Y-72064637D01*
X143765273Y-72221680D01*
X144026426Y-72329853D01*
X144054882Y-72335513D01*
X143828708Y-72416397D01*
X143703486Y-72483329D01*
X143631903Y-72727298D01*
X144445000Y-73540395D01*
X145258097Y-72727298D01*
X145186514Y-72483329D01*
X144931004Y-72362429D01*
X144828711Y-72336788D01*
X144863574Y-72329853D01*
X145124727Y-72221680D01*
X145359759Y-72064637D01*
X145559637Y-71864759D01*
X145716680Y-71629727D01*
X145824853Y-71368574D01*
X145880000Y-71091335D01*
X145880000Y-70808665D01*
X145824853Y-70531426D01*
X145716680Y-70270273D01*
X145559637Y-70035241D01*
X145359759Y-69835363D01*
X145124727Y-69678320D01*
X144863574Y-69570147D01*
X144586335Y-69515000D01*
X144303665Y-69515000D01*
X144026426Y-69570147D01*
X143765273Y-69678320D01*
X143530241Y-69835363D01*
X143330363Y-70035241D01*
X143173320Y-70270273D01*
X143065147Y-70531426D01*
X143010000Y-70808665D01*
X142326654Y-70808665D01*
X142519759Y-70679637D01*
X142719637Y-70479759D01*
X142876680Y-70244727D01*
X142984853Y-69983574D01*
X143040000Y-69706335D01*
X143040000Y-69423665D01*
X142984853Y-69146426D01*
X142876680Y-68885273D01*
X142719637Y-68650241D01*
X142519759Y-68450363D01*
X142284727Y-68293320D01*
X142023574Y-68185147D01*
X141746335Y-68130000D01*
X141463665Y-68130000D01*
X141186426Y-68185147D01*
X140925273Y-68293320D01*
X140690241Y-68450363D01*
X140490363Y-68650241D01*
X140333320Y-68885273D01*
X140225147Y-69146426D01*
X140170000Y-69423665D01*
X140170000Y-69706335D01*
X140225147Y-69983574D01*
X140333320Y-70244727D01*
X140490363Y-70479759D01*
X140690241Y-70679637D01*
X140925273Y-70836680D01*
X141186426Y-70944853D01*
X141212301Y-70950000D01*
X141186426Y-70955147D01*
X140925273Y-71063320D01*
X140690241Y-71220363D01*
X140490363Y-71420241D01*
X140333320Y-71655273D01*
X140225147Y-71916426D01*
X140170000Y-72193665D01*
X140170000Y-72476335D01*
X140225147Y-72753574D01*
X140333320Y-73014727D01*
X140490363Y-73249759D01*
X140690241Y-73449637D01*
X140925273Y-73606680D01*
X141186426Y-73714853D01*
X141212301Y-73720000D01*
X141186426Y-73725147D01*
X140925273Y-73833320D01*
X140690241Y-73990363D01*
X140490363Y-74190241D01*
X140333320Y-74425273D01*
X140225147Y-74686426D01*
X140170000Y-74963665D01*
X140170000Y-75246335D01*
X140225147Y-75523574D01*
X140333320Y-75784727D01*
X140490363Y-76019759D01*
X140690241Y-76219637D01*
X140925273Y-76376680D01*
X141186426Y-76484853D01*
X141212301Y-76490000D01*
X141186426Y-76495147D01*
X140925273Y-76603320D01*
X140690241Y-76760363D01*
X140490363Y-76960241D01*
X140333320Y-77195273D01*
X140225147Y-77456426D01*
X140170000Y-77733665D01*
X140170000Y-78016335D01*
X140225147Y-78293574D01*
X140333320Y-78554727D01*
X140490363Y-78789759D01*
X140690241Y-78989637D01*
X140925273Y-79146680D01*
X141070725Y-79206928D01*
X140805000Y-79206928D01*
X140680518Y-79219188D01*
X140560820Y-79255498D01*
X140450506Y-79314463D01*
X140353815Y-79393815D01*
X140274463Y-79490506D01*
X140215498Y-79600820D01*
X140179188Y-79720518D01*
X140166928Y-79845000D01*
X137013106Y-79845000D01*
X137029367Y-79806818D01*
X137046904Y-79724039D01*
X136924915Y-79502000D01*
X135382000Y-79502000D01*
X135382000Y-79522000D01*
X135128000Y-79522000D01*
X135128000Y-79502000D01*
X133585085Y-79502000D01*
X133463096Y-79724039D01*
X133480633Y-79806818D01*
X133591285Y-80066646D01*
X133750500Y-80299895D01*
X133952161Y-80497601D01*
X134181741Y-80647735D01*
X134053899Y-80716068D01*
X133835392Y-80895392D01*
X133656068Y-81113899D01*
X133522818Y-81363192D01*
X133440764Y-81633691D01*
X133413057Y-81915000D01*
X122513258Y-81915000D01*
X122536185Y-81896185D01*
X122615537Y-81799494D01*
X122674502Y-81689180D01*
X122710812Y-81569482D01*
X122723072Y-81445000D01*
X122723072Y-79845000D01*
X122710812Y-79720518D01*
X122674502Y-79600820D01*
X122615537Y-79490506D01*
X122536185Y-79393815D01*
X122513259Y-79375000D01*
X125793057Y-79375000D01*
X125820764Y-79656309D01*
X125902818Y-79926808D01*
X126036068Y-80176101D01*
X126215392Y-80394608D01*
X126433899Y-80573932D01*
X126561741Y-80642265D01*
X126332161Y-80792399D01*
X126130500Y-80990105D01*
X125971285Y-81223354D01*
X125860633Y-81483182D01*
X125843096Y-81565961D01*
X125965085Y-81788000D01*
X127508000Y-81788000D01*
X127508000Y-81768000D01*
X127762000Y-81768000D01*
X127762000Y-81788000D01*
X129304915Y-81788000D01*
X129426904Y-81565961D01*
X129409367Y-81483182D01*
X129298715Y-81223354D01*
X129139500Y-80990105D01*
X128937839Y-80792399D01*
X128708259Y-80642265D01*
X128836101Y-80573932D01*
X129054608Y-80394608D01*
X129233932Y-80176101D01*
X129367182Y-79926808D01*
X129449236Y-79656309D01*
X129476943Y-79375000D01*
X129449236Y-79093691D01*
X129367182Y-78823192D01*
X129233932Y-78573899D01*
X129054608Y-78355392D01*
X128836101Y-78176068D01*
X128708259Y-78107735D01*
X128937839Y-77957601D01*
X129139500Y-77759895D01*
X129298715Y-77526646D01*
X129409367Y-77266818D01*
X129426904Y-77184039D01*
X129304915Y-76962000D01*
X127762000Y-76962000D01*
X127762000Y-76982000D01*
X127508000Y-76982000D01*
X127508000Y-76962000D01*
X125965085Y-76962000D01*
X125843096Y-77184039D01*
X125860633Y-77266818D01*
X125971285Y-77526646D01*
X126130500Y-77759895D01*
X126332161Y-77957601D01*
X126561741Y-78107735D01*
X126433899Y-78176068D01*
X126215392Y-78355392D01*
X126036068Y-78573899D01*
X125902818Y-78823192D01*
X125820764Y-79093691D01*
X125793057Y-79375000D01*
X122513259Y-79375000D01*
X122439494Y-79314463D01*
X122329180Y-79255498D01*
X122209482Y-79219188D01*
X122085000Y-79206928D01*
X121819275Y-79206928D01*
X121964727Y-79146680D01*
X122199759Y-78989637D01*
X122399637Y-78789759D01*
X122556680Y-78554727D01*
X122664853Y-78293574D01*
X122720000Y-78016335D01*
X122720000Y-77733665D01*
X122664853Y-77456426D01*
X122556680Y-77195273D01*
X122399637Y-76960241D01*
X122274396Y-76835000D01*
X133413057Y-76835000D01*
X133440764Y-77116309D01*
X133522818Y-77386808D01*
X133656068Y-77636101D01*
X133835392Y-77854608D01*
X134053899Y-78033932D01*
X134181741Y-78102265D01*
X133952161Y-78252399D01*
X133750500Y-78450105D01*
X133591285Y-78683354D01*
X133480633Y-78943182D01*
X133463096Y-79025961D01*
X133585085Y-79248000D01*
X135128000Y-79248000D01*
X135128000Y-79228000D01*
X135382000Y-79228000D01*
X135382000Y-79248000D01*
X136924915Y-79248000D01*
X137046904Y-79025961D01*
X137029367Y-78943182D01*
X136918715Y-78683354D01*
X136759500Y-78450105D01*
X136557839Y-78252399D01*
X136328259Y-78102265D01*
X136456101Y-78033932D01*
X136674608Y-77854608D01*
X136853932Y-77636101D01*
X136987182Y-77386808D01*
X137069236Y-77116309D01*
X137096943Y-76835000D01*
X137069236Y-76553691D01*
X136987182Y-76283192D01*
X136853932Y-76033899D01*
X136674608Y-75815392D01*
X136456101Y-75636068D01*
X136328259Y-75567735D01*
X136557839Y-75417601D01*
X136759500Y-75219895D01*
X136918715Y-74986646D01*
X137029367Y-74726818D01*
X137046904Y-74644039D01*
X136924915Y-74422000D01*
X135382000Y-74422000D01*
X135382000Y-74442000D01*
X135128000Y-74442000D01*
X135128000Y-74422000D01*
X133585085Y-74422000D01*
X133463096Y-74644039D01*
X133480633Y-74726818D01*
X133591285Y-74986646D01*
X133750500Y-75219895D01*
X133952161Y-75417601D01*
X134181741Y-75567735D01*
X134053899Y-75636068D01*
X133835392Y-75815392D01*
X133656068Y-76033899D01*
X133522818Y-76283192D01*
X133440764Y-76553691D01*
X133413057Y-76835000D01*
X122274396Y-76835000D01*
X122199759Y-76760363D01*
X121964727Y-76603320D01*
X121703574Y-76495147D01*
X121677699Y-76490000D01*
X121703574Y-76484853D01*
X121964727Y-76376680D01*
X122199759Y-76219637D01*
X122399637Y-76019759D01*
X122556680Y-75784727D01*
X122664853Y-75523574D01*
X122720000Y-75246335D01*
X122720000Y-74963665D01*
X122664853Y-74686426D01*
X122556680Y-74425273D01*
X122469635Y-74295000D01*
X125793057Y-74295000D01*
X125820764Y-74576309D01*
X125902818Y-74846808D01*
X126036068Y-75096101D01*
X126215392Y-75314608D01*
X126433899Y-75493932D01*
X126561741Y-75562265D01*
X126332161Y-75712399D01*
X126130500Y-75910105D01*
X125971285Y-76143354D01*
X125860633Y-76403182D01*
X125843096Y-76485961D01*
X125965085Y-76708000D01*
X127508000Y-76708000D01*
X127508000Y-76688000D01*
X127762000Y-76688000D01*
X127762000Y-76708000D01*
X129304915Y-76708000D01*
X129426904Y-76485961D01*
X129409367Y-76403182D01*
X129298715Y-76143354D01*
X129139500Y-75910105D01*
X128937839Y-75712399D01*
X128708259Y-75562265D01*
X128836101Y-75493932D01*
X129054608Y-75314608D01*
X129233932Y-75096101D01*
X129367182Y-74846808D01*
X129449236Y-74576309D01*
X129476943Y-74295000D01*
X129449236Y-74013691D01*
X129367182Y-73743192D01*
X129233932Y-73493899D01*
X129054608Y-73275392D01*
X128941518Y-73182581D01*
X128959482Y-73180812D01*
X129079180Y-73144502D01*
X129189494Y-73085537D01*
X129286185Y-73006185D01*
X129365537Y-72909494D01*
X129424502Y-72799180D01*
X129460812Y-72679482D01*
X129473072Y-72555000D01*
X129473072Y-71755000D01*
X133413057Y-71755000D01*
X133440764Y-72036309D01*
X133522818Y-72306808D01*
X133656068Y-72556101D01*
X133835392Y-72774608D01*
X134053899Y-72953932D01*
X134181741Y-73022265D01*
X133952161Y-73172399D01*
X133750500Y-73370105D01*
X133591285Y-73603354D01*
X133480633Y-73863182D01*
X133463096Y-73945961D01*
X133585085Y-74168000D01*
X135128000Y-74168000D01*
X135128000Y-74148000D01*
X135382000Y-74148000D01*
X135382000Y-74168000D01*
X136924915Y-74168000D01*
X137046904Y-73945961D01*
X137029367Y-73863182D01*
X136918715Y-73603354D01*
X136759500Y-73370105D01*
X136557839Y-73172399D01*
X136328259Y-73022265D01*
X136456101Y-72953932D01*
X136674608Y-72774608D01*
X136853932Y-72556101D01*
X136987182Y-72306808D01*
X137069236Y-72036309D01*
X137096943Y-71755000D01*
X137069236Y-71473691D01*
X136987182Y-71203192D01*
X136853932Y-70953899D01*
X136674608Y-70735392D01*
X136456101Y-70556068D01*
X136206808Y-70422818D01*
X135936309Y-70340764D01*
X135725492Y-70320000D01*
X134784508Y-70320000D01*
X134573691Y-70340764D01*
X134303192Y-70422818D01*
X134053899Y-70556068D01*
X133835392Y-70735392D01*
X133656068Y-70953899D01*
X133522818Y-71203192D01*
X133440764Y-71473691D01*
X133413057Y-71755000D01*
X129473072Y-71755000D01*
X129473072Y-70955000D01*
X129460812Y-70830518D01*
X129424502Y-70710820D01*
X129365537Y-70600506D01*
X129286185Y-70503815D01*
X129189494Y-70424463D01*
X129079180Y-70365498D01*
X128959482Y-70329188D01*
X128835000Y-70316928D01*
X126435000Y-70316928D01*
X126310518Y-70329188D01*
X126190820Y-70365498D01*
X126080506Y-70424463D01*
X125983815Y-70503815D01*
X125904463Y-70600506D01*
X125845498Y-70710820D01*
X125809188Y-70830518D01*
X125796928Y-70955000D01*
X125796928Y-72555000D01*
X125809188Y-72679482D01*
X125845498Y-72799180D01*
X125904463Y-72909494D01*
X125983815Y-73006185D01*
X126080506Y-73085537D01*
X126190820Y-73144502D01*
X126310518Y-73180812D01*
X126328482Y-73182581D01*
X126215392Y-73275392D01*
X126036068Y-73493899D01*
X125902818Y-73743192D01*
X125820764Y-74013691D01*
X125793057Y-74295000D01*
X122469635Y-74295000D01*
X122399637Y-74190241D01*
X122199759Y-73990363D01*
X121964727Y-73833320D01*
X121703574Y-73725147D01*
X121677699Y-73720000D01*
X121703574Y-73714853D01*
X121964727Y-73606680D01*
X122199759Y-73449637D01*
X122399637Y-73249759D01*
X122556680Y-73014727D01*
X122664853Y-72753574D01*
X122720000Y-72476335D01*
X122720000Y-72193665D01*
X122664853Y-71916426D01*
X122556680Y-71655273D01*
X122399637Y-71420241D01*
X122199759Y-71220363D01*
X121964727Y-71063320D01*
X121703574Y-70955147D01*
X121677699Y-70950000D01*
X121703574Y-70944853D01*
X121964727Y-70836680D01*
X122199759Y-70679637D01*
X122399637Y-70479759D01*
X122556680Y-70244727D01*
X122664853Y-69983574D01*
X122720000Y-69706335D01*
X122720000Y-69423665D01*
X122664853Y-69146426D01*
X122578397Y-68937702D01*
X128171903Y-68937702D01*
X128243486Y-69181671D01*
X128498996Y-69302571D01*
X128773184Y-69371300D01*
X129055512Y-69385217D01*
X129335130Y-69343787D01*
X129601292Y-69248603D01*
X129726514Y-69181671D01*
X129798097Y-68937702D01*
X128985000Y-68124605D01*
X128171903Y-68937702D01*
X122578397Y-68937702D01*
X122556680Y-68885273D01*
X122399637Y-68650241D01*
X122199759Y-68450363D01*
X121964727Y-68293320D01*
X121703574Y-68185147D01*
X121426335Y-68130000D01*
X121143665Y-68130000D01*
X120866426Y-68185147D01*
X120605273Y-68293320D01*
X120370241Y-68450363D01*
X120170363Y-68650241D01*
X120013320Y-68885273D01*
X119905147Y-69146426D01*
X119850000Y-69423665D01*
X119850000Y-69706335D01*
X119905147Y-69983574D01*
X120013320Y-70244727D01*
X120170363Y-70479759D01*
X120370241Y-70679637D01*
X120605273Y-70836680D01*
X120866426Y-70944853D01*
X120892301Y-70950000D01*
X120866426Y-70955147D01*
X120605273Y-71063320D01*
X120370241Y-71220363D01*
X120170363Y-71420241D01*
X120013320Y-71655273D01*
X119905147Y-71916426D01*
X119850000Y-72193665D01*
X119850000Y-72476335D01*
X119905147Y-72753574D01*
X120013320Y-73014727D01*
X120170363Y-73249759D01*
X120370241Y-73449637D01*
X120605273Y-73606680D01*
X120866426Y-73714853D01*
X120892301Y-73720000D01*
X120866426Y-73725147D01*
X120605273Y-73833320D01*
X120370241Y-73990363D01*
X120170363Y-74190241D01*
X120013320Y-74425273D01*
X119905147Y-74686426D01*
X119850000Y-74963665D01*
X119850000Y-75246335D01*
X119905147Y-75523574D01*
X120013320Y-75784727D01*
X120170363Y-76019759D01*
X120370241Y-76219637D01*
X120605273Y-76376680D01*
X120866426Y-76484853D01*
X120892301Y-76490000D01*
X120866426Y-76495147D01*
X120605273Y-76603320D01*
X120370241Y-76760363D01*
X120170363Y-76960241D01*
X120013320Y-77195273D01*
X119905147Y-77456426D01*
X119850000Y-77733665D01*
X119850000Y-78016335D01*
X119905147Y-78293574D01*
X120013320Y-78554727D01*
X120170363Y-78789759D01*
X120370241Y-78989637D01*
X120605273Y-79146680D01*
X120750725Y-79206928D01*
X120485000Y-79206928D01*
X120360518Y-79219188D01*
X120240820Y-79255498D01*
X120130506Y-79314463D01*
X120033815Y-79393815D01*
X119954463Y-79490506D01*
X119895498Y-79600820D01*
X119859188Y-79720518D01*
X119846928Y-79845000D01*
X119755917Y-79845000D01*
X119824853Y-79678574D01*
X119880000Y-79401335D01*
X119880000Y-79118665D01*
X119824853Y-78841426D01*
X119716680Y-78580273D01*
X119559637Y-78345241D01*
X119359759Y-78145363D01*
X119124727Y-77988320D01*
X118863574Y-77880147D01*
X118837699Y-77875000D01*
X118863574Y-77869853D01*
X119124727Y-77761680D01*
X119359759Y-77604637D01*
X119559637Y-77404759D01*
X119716680Y-77169727D01*
X119824853Y-76908574D01*
X119880000Y-76631335D01*
X119880000Y-76348665D01*
X119824853Y-76071426D01*
X119716680Y-75810273D01*
X119559637Y-75575241D01*
X119359759Y-75375363D01*
X119124727Y-75218320D01*
X118863574Y-75110147D01*
X118837699Y-75105000D01*
X118863574Y-75099853D01*
X119124727Y-74991680D01*
X119359759Y-74834637D01*
X119559637Y-74634759D01*
X119716680Y-74399727D01*
X119824853Y-74138574D01*
X119880000Y-73861335D01*
X119880000Y-73578665D01*
X119824853Y-73301426D01*
X119716680Y-73040273D01*
X119559637Y-72805241D01*
X119359759Y-72605363D01*
X119124727Y-72448320D01*
X118863574Y-72340147D01*
X118835118Y-72334487D01*
X119061292Y-72253603D01*
X119186514Y-72186671D01*
X119258097Y-71942702D01*
X118445000Y-71129605D01*
X117631903Y-71942702D01*
X117703486Y-72186671D01*
X117958996Y-72307571D01*
X118061289Y-72333212D01*
X118026426Y-72340147D01*
X117765273Y-72448320D01*
X117530241Y-72605363D01*
X117330363Y-72805241D01*
X117173320Y-73040273D01*
X117065147Y-73301426D01*
X117010000Y-73578665D01*
X116915000Y-73578665D01*
X116915000Y-71020512D01*
X117004783Y-71020512D01*
X117046213Y-71300130D01*
X117141397Y-71566292D01*
X117208329Y-71691514D01*
X117452298Y-71763097D01*
X118265395Y-70950000D01*
X118624605Y-70950000D01*
X119437702Y-71763097D01*
X119681671Y-71691514D01*
X119802571Y-71436004D01*
X119871300Y-71161816D01*
X119885217Y-70879488D01*
X119843787Y-70599870D01*
X119748603Y-70333708D01*
X119681671Y-70208486D01*
X119437702Y-70136903D01*
X118624605Y-70950000D01*
X118265395Y-70950000D01*
X117452298Y-70136903D01*
X117208329Y-70208486D01*
X117087429Y-70463996D01*
X117018700Y-70738184D01*
X117004783Y-71020512D01*
X116915000Y-71020512D01*
X116915000Y-69957298D01*
X117631903Y-69957298D01*
X118445000Y-70770395D01*
X119258097Y-69957298D01*
X119186514Y-69713329D01*
X118931004Y-69592429D01*
X118656816Y-69523700D01*
X118374488Y-69509783D01*
X118094870Y-69551213D01*
X117828708Y-69646397D01*
X117703486Y-69713329D01*
X117631903Y-69957298D01*
X116915000Y-69957298D01*
X116915000Y-68015512D01*
X127544783Y-68015512D01*
X127586213Y-68295130D01*
X127681397Y-68561292D01*
X127748329Y-68686514D01*
X127992298Y-68758097D01*
X128805395Y-67945000D01*
X129164605Y-67945000D01*
X129977702Y-68758097D01*
X130221671Y-68686514D01*
X130342571Y-68431004D01*
X130411300Y-68156816D01*
X130425217Y-67874488D01*
X130414724Y-67803665D01*
X132550000Y-67803665D01*
X132550000Y-68086335D01*
X132605147Y-68363574D01*
X132713320Y-68624727D01*
X132870363Y-68859759D01*
X133070241Y-69059637D01*
X133305273Y-69216680D01*
X133566426Y-69324853D01*
X133843665Y-69380000D01*
X134126335Y-69380000D01*
X134403574Y-69324853D01*
X134664727Y-69216680D01*
X134899759Y-69059637D01*
X135099637Y-68859759D01*
X135256680Y-68624727D01*
X135364853Y-68363574D01*
X135420000Y-68086335D01*
X135420000Y-67803665D01*
X135364853Y-67526426D01*
X135256680Y-67265273D01*
X135099637Y-67030241D01*
X134899759Y-66830363D01*
X134664727Y-66673320D01*
X134403574Y-66565147D01*
X134126335Y-66510000D01*
X133843665Y-66510000D01*
X133566426Y-66565147D01*
X133305273Y-66673320D01*
X133070241Y-66830363D01*
X132870363Y-67030241D01*
X132713320Y-67265273D01*
X132605147Y-67526426D01*
X132550000Y-67803665D01*
X130414724Y-67803665D01*
X130383787Y-67594870D01*
X130288603Y-67328708D01*
X130221671Y-67203486D01*
X129977702Y-67131903D01*
X129164605Y-67945000D01*
X128805395Y-67945000D01*
X127992298Y-67131903D01*
X127748329Y-67203486D01*
X127627429Y-67458996D01*
X127558700Y-67733184D01*
X127544783Y-68015512D01*
X116915000Y-68015512D01*
X116915000Y-66952298D01*
X128171903Y-66952298D01*
X128985000Y-67765395D01*
X129798097Y-66952298D01*
X129726514Y-66708329D01*
X129471004Y-66587429D01*
X129196816Y-66518700D01*
X128914488Y-66504783D01*
X128634870Y-66546213D01*
X128368708Y-66641397D01*
X128243486Y-66708329D01*
X128171903Y-66952298D01*
X116915000Y-66952298D01*
X116915000Y-62345475D01*
X117230000Y-62345475D01*
X117230000Y-62864525D01*
X117331261Y-63373601D01*
X117529893Y-63853141D01*
X117818262Y-64284715D01*
X118185285Y-64651738D01*
X118616859Y-64940107D01*
X119096399Y-65138739D01*
X119605475Y-65240000D01*
X120124525Y-65240000D01*
X120633601Y-65138739D01*
X121113141Y-64940107D01*
X121544715Y-64651738D01*
X121567788Y-64628665D01*
X126200000Y-64628665D01*
X126200000Y-64911335D01*
X126255147Y-65188574D01*
X126363320Y-65449727D01*
X126520363Y-65684759D01*
X126720241Y-65884637D01*
X126955273Y-66041680D01*
X127216426Y-66149853D01*
X127493665Y-66205000D01*
X127776335Y-66205000D01*
X128053574Y-66149853D01*
X128314727Y-66041680D01*
X128549759Y-65884637D01*
X128749637Y-65684759D01*
X128906680Y-65449727D01*
X129014853Y-65188574D01*
X129070000Y-64911335D01*
X129070000Y-64628665D01*
X129014853Y-64351426D01*
X128906680Y-64090273D01*
X128826317Y-63970000D01*
X133816928Y-63970000D01*
X133816928Y-65570000D01*
X133829188Y-65694482D01*
X133865498Y-65814180D01*
X133924463Y-65924494D01*
X134003815Y-66021185D01*
X134100506Y-66100537D01*
X134210820Y-66159502D01*
X134330518Y-66195812D01*
X134455000Y-66208072D01*
X136055000Y-66208072D01*
X136179482Y-66195812D01*
X136299180Y-66159502D01*
X136409494Y-66100537D01*
X136506185Y-66021185D01*
X136585537Y-65924494D01*
X136644502Y-65814180D01*
X136680812Y-65694482D01*
X136693072Y-65570000D01*
X136693072Y-63970000D01*
X136680812Y-63845518D01*
X136644502Y-63725820D01*
X136585537Y-63615506D01*
X136506185Y-63518815D01*
X136409494Y-63439463D01*
X136299180Y-63380498D01*
X136179482Y-63344188D01*
X136055000Y-63331928D01*
X134455000Y-63331928D01*
X134330518Y-63344188D01*
X134210820Y-63380498D01*
X134100506Y-63439463D01*
X134003815Y-63518815D01*
X133924463Y-63615506D01*
X133865498Y-63725820D01*
X133829188Y-63845518D01*
X133816928Y-63970000D01*
X128826317Y-63970000D01*
X128749637Y-63855241D01*
X128549759Y-63655363D01*
X128314727Y-63498320D01*
X128053574Y-63390147D01*
X127776335Y-63335000D01*
X127493665Y-63335000D01*
X127216426Y-63390147D01*
X126955273Y-63498320D01*
X126720241Y-63655363D01*
X126520363Y-63855241D01*
X126363320Y-64090273D01*
X126255147Y-64351426D01*
X126200000Y-64628665D01*
X121567788Y-64628665D01*
X121911738Y-64284715D01*
X122200107Y-63853141D01*
X122398739Y-63373601D01*
X122500000Y-62864525D01*
X122500000Y-62345475D01*
X122398739Y-61836399D01*
X122200107Y-61356859D01*
X121911738Y-60925285D01*
X121544715Y-60558262D01*
X121113141Y-60269893D01*
X120633601Y-60071261D01*
X120124525Y-59970000D01*
X119605475Y-59970000D01*
X119096399Y-60071261D01*
X118616859Y-60269893D01*
X118185285Y-60558262D01*
X117818262Y-60925285D01*
X117529893Y-61356859D01*
X117331261Y-61836399D01*
X117230000Y-62345475D01*
X116915000Y-62345475D01*
X116915000Y-60359720D01*
X116929005Y-60216891D01*
X116960402Y-60112899D01*
X117011399Y-60016986D01*
X117080055Y-59932806D01*
X117163758Y-59863560D01*
X117259311Y-59811895D01*
X117363078Y-59779773D01*
X117503641Y-59765000D01*
X127076756Y-59765000D01*
X126955273Y-59815320D01*
G37*
X126955273Y-59815320D02*
X126720241Y-59972363D01*
X126520363Y-60172241D01*
X126363320Y-60407273D01*
X126255147Y-60668426D01*
X126200000Y-60945665D01*
X126200000Y-61228335D01*
X126255147Y-61505574D01*
X126363320Y-61766727D01*
X126520363Y-62001759D01*
X126720241Y-62201637D01*
X126955273Y-62358680D01*
X127216426Y-62466853D01*
X127493665Y-62522000D01*
X127776335Y-62522000D01*
X128053574Y-62466853D01*
X128314727Y-62358680D01*
X128549759Y-62201637D01*
X128749637Y-62001759D01*
X128906680Y-61766727D01*
X129014853Y-61505574D01*
X129070000Y-61228335D01*
X129070000Y-60945665D01*
X129014853Y-60668426D01*
X128906680Y-60407273D01*
X128749637Y-60172241D01*
X128549759Y-59972363D01*
X128314727Y-59815320D01*
X128193244Y-59765000D01*
X134090104Y-59765000D01*
X134003815Y-59835815D01*
X133924463Y-59932506D01*
X133865498Y-60042820D01*
X133829188Y-60162518D01*
X133816928Y-60287000D01*
X133816928Y-61887000D01*
X133829188Y-62011482D01*
X133865498Y-62131180D01*
X133924463Y-62241494D01*
X134003815Y-62338185D01*
X134100506Y-62417537D01*
X134210820Y-62476502D01*
X134330518Y-62512812D01*
X134455000Y-62525072D01*
X136055000Y-62525072D01*
X136179482Y-62512812D01*
X136299180Y-62476502D01*
X136409494Y-62417537D01*
X136497302Y-62345475D01*
X140390000Y-62345475D01*
X140390000Y-62864525D01*
X140491261Y-63373601D01*
X140689893Y-63853141D01*
X140978262Y-64284715D01*
X141345285Y-64651738D01*
X141776859Y-64940107D01*
X142256399Y-65138739D01*
X142765475Y-65240000D01*
X143284525Y-65240000D01*
X143793601Y-65138739D01*
X144273141Y-64940107D01*
X144704715Y-64651738D01*
X145071738Y-64284715D01*
X145360107Y-63853141D01*
X145558739Y-63373601D01*
X145660000Y-62864525D01*
X145660000Y-62345475D01*
X145558739Y-61836399D01*
X145360107Y-61356859D01*
X145071738Y-60925285D01*
X144704715Y-60558262D01*
X144273141Y-60269893D01*
X143793601Y-60071261D01*
X143284525Y-59970000D01*
X142765475Y-59970000D01*
X142256399Y-60071261D01*
X141776859Y-60269893D01*
X141345285Y-60558262D01*
X140978262Y-60925285D01*
X140689893Y-61356859D01*
X140491261Y-61836399D01*
X140390000Y-62345475D01*
X136497302Y-62345475D01*
X136506185Y-62338185D01*
X136585537Y-62241494D01*
X136644502Y-62131180D01*
X136680812Y-62011482D01*
X136693072Y-61887000D01*
X136693072Y-60287000D01*
X136680812Y-60162518D01*
X136644502Y-60042820D01*
X136585537Y-59932506D01*
X136506185Y-59835815D01*
X136419896Y-59765000D01*
X145380280Y-59765000D01*
X145523109Y-59779005D01*
X145627101Y-59810402D01*
X145723014Y-59861399D01*
X145807194Y-59930055D01*
X145876440Y-60013758D01*
X145928105Y-60109311D01*
X145960227Y-60213078D01*
X145975000Y-60353641D01*
X145975001Y-89500270D01*
X145960995Y-89643109D01*
X145929599Y-89747099D01*
X145878601Y-89843013D01*
X145809941Y-89927199D01*
X145726243Y-89996439D01*
X145630689Y-90048105D01*
X145526922Y-90080227D01*
X145386359Y-90095000D01*
X143899196Y-90095000D01*
X144273141Y-89940107D01*
X144704715Y-89651738D01*
X145071738Y-89284715D01*
X145360107Y-88853141D01*
X145558739Y-88373601D01*
X145660000Y-87864525D01*
X145660000Y-87345475D01*
X145558739Y-86836399D01*
X145360107Y-86356859D01*
X145071738Y-85925285D01*
X144704715Y-85558262D01*
X144273141Y-85269893D01*
X143793601Y-85071261D01*
X143284525Y-84970000D01*
X142765475Y-84970000D01*
X142256399Y-85071261D01*
X141776859Y-85269893D01*
X141345285Y-85558262D01*
X140978262Y-85925285D01*
X140689893Y-86356859D01*
X140491261Y-86836399D01*
X140390000Y-87345475D01*
X140390000Y-87864525D01*
X140491261Y-88373601D01*
X140689893Y-88853141D01*
X140978262Y-89284715D01*
X141345285Y-89651738D01*
X141776859Y-89940107D01*
X142150804Y-90095000D01*
X120739196Y-90095000D01*
X121113141Y-89940107D01*
X121544715Y-89651738D01*
X121911738Y-89284715D01*
X122200107Y-88853141D01*
X122398739Y-88373601D01*
X122500000Y-87864525D01*
X122500000Y-87345475D01*
X122499715Y-87344039D01*
X125843096Y-87344039D01*
X125860633Y-87426818D01*
X125971285Y-87686646D01*
X126130500Y-87919895D01*
X126332161Y-88117601D01*
X126568517Y-88272166D01*
X126830486Y-88377650D01*
X127108000Y-88430000D01*
X127508000Y-88430000D01*
X127508000Y-87122000D01*
X127762000Y-87122000D01*
X127762000Y-88430000D01*
X128162000Y-88430000D01*
X128439514Y-88377650D01*
X128701483Y-88272166D01*
X128937839Y-88117601D01*
X129139500Y-87919895D01*
X129298715Y-87686646D01*
X129409367Y-87426818D01*
X129426904Y-87344039D01*
X129304915Y-87122000D01*
X127762000Y-87122000D01*
X127508000Y-87122000D01*
X125965085Y-87122000D01*
X125843096Y-87344039D01*
X122499715Y-87344039D01*
X122430287Y-86995000D01*
X133413057Y-86995000D01*
X133440764Y-87276309D01*
X133522818Y-87546808D01*
X133656068Y-87796101D01*
X133835392Y-88014608D01*
X134053899Y-88193932D01*
X134303192Y-88327182D01*
X134573691Y-88409236D01*
X134784508Y-88430000D01*
X135725492Y-88430000D01*
X135936309Y-88409236D01*
X136206808Y-88327182D01*
X136456101Y-88193932D01*
X136674608Y-88014608D01*
X136853932Y-87796101D01*
X136987182Y-87546808D01*
X137069236Y-87276309D01*
X137096943Y-86995000D01*
X137069236Y-86713691D01*
X136987182Y-86443192D01*
X136853932Y-86193899D01*
X136674608Y-85975392D01*
X136456101Y-85796068D01*
X136328259Y-85727735D01*
X136557839Y-85577601D01*
X136759500Y-85379895D01*
X136918715Y-85146646D01*
X137029367Y-84886818D01*
X137046904Y-84804039D01*
X136924915Y-84582000D01*
X135382000Y-84582000D01*
X135382000Y-84602000D01*
X135128000Y-84602000D01*
X135128000Y-84582000D01*
X133585085Y-84582000D01*
X133463096Y-84804039D01*
X133480633Y-84886818D01*
X133591285Y-85146646D01*
X133750500Y-85379895D01*
X133952161Y-85577601D01*
X134181741Y-85727735D01*
X134053899Y-85796068D01*
X133835392Y-85975392D01*
X133656068Y-86193899D01*
X133522818Y-86443192D01*
X133440764Y-86713691D01*
X133413057Y-86995000D01*
X122430287Y-86995000D01*
X122398739Y-86836399D01*
X122200107Y-86356859D01*
X121911738Y-85925285D01*
X121544715Y-85558262D01*
X121113141Y-85269893D01*
X120633601Y-85071261D01*
X120124525Y-84970000D01*
X119605475Y-84970000D01*
X119096399Y-85071261D01*
X118616859Y-85269893D01*
X118185285Y-85558262D01*
X117818262Y-85925285D01*
X117529893Y-86356859D01*
X117331261Y-86836399D01*
X117230000Y-87345475D01*
X117230000Y-87864525D01*
X117331261Y-88373601D01*
X117529893Y-88853141D01*
X117818262Y-89284715D01*
X118185285Y-89651738D01*
X118616859Y-89940107D01*
X118990804Y-90095000D01*
X117509720Y-90095000D01*
X117366891Y-90080995D01*
X117262901Y-90049599D01*
X117166987Y-89998601D01*
X117082801Y-89929941D01*
X117013561Y-89846243D01*
X116961895Y-89750689D01*
X116929773Y-89646922D01*
X116915000Y-89506359D01*
X116915000Y-84455000D01*
X125793057Y-84455000D01*
X125820764Y-84736309D01*
X125902818Y-85006808D01*
X126036068Y-85256101D01*
X126215392Y-85474608D01*
X126433899Y-85653932D01*
X126561741Y-85722265D01*
X126332161Y-85872399D01*
X126130500Y-86070105D01*
X125971285Y-86303354D01*
X125860633Y-86563182D01*
X125843096Y-86645961D01*
X125965085Y-86868000D01*
X127508000Y-86868000D01*
X127508000Y-86848000D01*
X127762000Y-86848000D01*
X127762000Y-86868000D01*
X129304915Y-86868000D01*
X129426904Y-86645961D01*
X129409367Y-86563182D01*
X129298715Y-86303354D01*
X129139500Y-86070105D01*
X128937839Y-85872399D01*
X128708259Y-85722265D01*
X128836101Y-85653932D01*
X129054608Y-85474608D01*
X129233932Y-85256101D01*
X129367182Y-85006808D01*
X129449236Y-84736309D01*
X129476943Y-84455000D01*
X129449236Y-84173691D01*
X129367182Y-83903192D01*
X129233932Y-83653899D01*
X129054608Y-83435392D01*
X128836101Y-83256068D01*
X128708259Y-83187735D01*
X128937839Y-83037601D01*
X129139500Y-82839895D01*
X129298715Y-82606646D01*
X129409367Y-82346818D01*
X129426904Y-82264039D01*
X129304915Y-82042000D01*
X127762000Y-82042000D01*
X127762000Y-82062000D01*
X127508000Y-82062000D01*
X127508000Y-82042000D01*
X125965085Y-82042000D01*
X125843096Y-82264039D01*
X125860633Y-82346818D01*
X125971285Y-82606646D01*
X126130500Y-82839895D01*
X126332161Y-83037601D01*
X126561741Y-83187735D01*
X126433899Y-83256068D01*
X126215392Y-83435392D01*
X126036068Y-83653899D01*
X125902818Y-83903192D01*
X125820764Y-84173691D01*
X125793057Y-84455000D01*
X116915000Y-84455000D01*
X116915000Y-73578665D01*
X117010000Y-73578665D01*
X117010000Y-73861335D01*
X117065147Y-74138574D01*
X117173320Y-74399727D01*
X117330363Y-74634759D01*
X117530241Y-74834637D01*
X117765273Y-74991680D01*
X118026426Y-75099853D01*
X118052301Y-75105000D01*
X118026426Y-75110147D01*
X117765273Y-75218320D01*
X117530241Y-75375363D01*
X117330363Y-75575241D01*
X117173320Y-75810273D01*
X117065147Y-76071426D01*
X117010000Y-76348665D01*
X117010000Y-76631335D01*
X117065147Y-76908574D01*
X117173320Y-77169727D01*
X117330363Y-77404759D01*
X117530241Y-77604637D01*
X117765273Y-77761680D01*
X118026426Y-77869853D01*
X118052301Y-77875000D01*
X118026426Y-77880147D01*
X117765273Y-77988320D01*
X117530241Y-78145363D01*
X117330363Y-78345241D01*
X117173320Y-78580273D01*
X117065147Y-78841426D01*
X117010000Y-79118665D01*
X117010000Y-79401335D01*
X117065147Y-79678574D01*
X117173320Y-79939727D01*
X117330363Y-80174759D01*
X117530241Y-80374637D01*
X117765273Y-80531680D01*
X118026426Y-80639853D01*
X118303665Y-80695000D01*
X118586335Y-80695000D01*
X118863574Y-80639853D01*
X119124727Y-80531680D01*
X119359759Y-80374637D01*
X119559637Y-80174759D01*
X119716680Y-79939727D01*
X119755917Y-79845000D01*
X119846928Y-79845000D01*
X119846928Y-81445000D01*
X119859188Y-81569482D01*
X119895498Y-81689180D01*
X119954463Y-81799494D01*
X120033815Y-81896185D01*
X120130506Y-81975537D01*
X120240820Y-82034502D01*
X120360518Y-82070812D01*
X120485000Y-82083072D01*
X122085000Y-82083072D01*
X122209482Y-82070812D01*
X122329180Y-82034502D01*
X122439494Y-81975537D01*
X122513258Y-81915000D01*
X133413057Y-81915000D01*
X133440764Y-82196309D01*
X133522818Y-82466808D01*
X133656068Y-82716101D01*
X133835392Y-82934608D01*
X134053899Y-83113932D01*
X134181741Y-83182265D01*
X133952161Y-83332399D01*
X133750500Y-83530105D01*
X133591285Y-83763354D01*
X133480633Y-84023182D01*
X133463096Y-84105961D01*
X133585085Y-84328000D01*
X135128000Y-84328000D01*
X135128000Y-84308000D01*
X135382000Y-84308000D01*
X135382000Y-84328000D01*
X136924915Y-84328000D01*
X137046904Y-84105961D01*
X137029367Y-84023182D01*
X136918715Y-83763354D01*
X136759500Y-83530105D01*
X136557839Y-83332399D01*
X136328259Y-83182265D01*
X136456101Y-83113932D01*
X136674608Y-82934608D01*
X136853932Y-82716101D01*
X136987182Y-82466808D01*
X137069236Y-82196309D01*
X137096943Y-81915000D01*
X137069236Y-81633691D01*
X136987182Y-81363192D01*
X136853932Y-81113899D01*
X136674608Y-80895392D01*
X136456101Y-80716068D01*
X136328259Y-80647735D01*
X136557839Y-80497601D01*
X136759500Y-80299895D01*
X136918715Y-80066646D01*
X137013106Y-79845000D01*
X140166928Y-79845000D01*
X140166928Y-81445000D01*
X140179188Y-81569482D01*
X140215498Y-81689180D01*
X140274463Y-81799494D01*
X140353815Y-81896185D01*
X140450506Y-81975537D01*
X140560820Y-82034502D01*
X140680518Y-82070812D01*
X140805000Y-82083072D01*
X142405000Y-82083072D01*
X142529482Y-82070812D01*
X142649180Y-82034502D01*
X142759494Y-81975537D01*
X142856185Y-81896185D01*
X142935537Y-81799494D01*
X142994502Y-81689180D01*
X143030812Y-81569482D01*
X143043072Y-81445000D01*
X143043072Y-79845000D01*
X143030812Y-79720518D01*
X142994502Y-79600820D01*
X142935537Y-79490506D01*
X142856185Y-79393815D01*
X142759494Y-79314463D01*
X142649180Y-79255498D01*
X142529482Y-79219188D01*
X142405000Y-79206928D01*
X142139275Y-79206928D01*
X142284727Y-79146680D01*
X142519759Y-78989637D01*
X142719637Y-78789759D01*
X142876680Y-78554727D01*
X142984853Y-78293574D01*
X143040000Y-78016335D01*
X143040000Y-77733665D01*
X142984853Y-77456426D01*
X142876680Y-77195273D01*
X142719637Y-76960241D01*
X142519759Y-76760363D01*
X142284727Y-76603320D01*
X142023574Y-76495147D01*
X141997699Y-76490000D01*
X142023574Y-76484853D01*
X142284727Y-76376680D01*
X142326654Y-76348665D01*
X143010000Y-76348665D01*
X143010000Y-76631335D01*
X143065147Y-76908574D01*
X143173320Y-77169727D01*
X143330363Y-77404759D01*
X143530241Y-77604637D01*
X143765273Y-77761680D01*
X144026426Y-77869853D01*
X144052301Y-77875000D01*
X144026426Y-77880147D01*
X143765273Y-77988320D01*
X143530241Y-78145363D01*
X143330363Y-78345241D01*
X143173320Y-78580273D01*
X143065147Y-78841426D01*
X143010000Y-79118665D01*
X143010000Y-79401335D01*
X143065147Y-79678574D01*
X143173320Y-79939727D01*
X143330363Y-80174759D01*
X143530241Y-80374637D01*
X143765273Y-80531680D01*
X144026426Y-80639853D01*
X144303665Y-80695000D01*
X144586335Y-80695000D01*
X144863574Y-80639853D01*
X145124727Y-80531680D01*
X145359759Y-80374637D01*
X145559637Y-80174759D01*
X145716680Y-79939727D01*
X145824853Y-79678574D01*
X145880000Y-79401335D01*
X145880000Y-79118665D01*
X145824853Y-78841426D01*
X145716680Y-78580273D01*
X145559637Y-78345241D01*
X145359759Y-78145363D01*
X145124727Y-77988320D01*
X144863574Y-77880147D01*
X144837699Y-77875000D01*
X144863574Y-77869853D01*
X145124727Y-77761680D01*
X145359759Y-77604637D01*
X145559637Y-77404759D01*
X145716680Y-77169727D01*
X145824853Y-76908574D01*
X145880000Y-76631335D01*
X145880000Y-76348665D01*
X145824853Y-76071426D01*
X145716680Y-75810273D01*
X145559637Y-75575241D01*
X145359759Y-75375363D01*
X145124727Y-75218320D01*
X144863574Y-75110147D01*
X144835118Y-75104487D01*
X145061292Y-75023603D01*
X145186514Y-74956671D01*
X145258097Y-74712702D01*
X144445000Y-73899605D01*
X143631903Y-74712702D01*
X143703486Y-74956671D01*
X143958996Y-75077571D01*
X144061289Y-75103212D01*
X144026426Y-75110147D01*
X143765273Y-75218320D01*
X143530241Y-75375363D01*
X143330363Y-75575241D01*
X143173320Y-75810273D01*
X143065147Y-76071426D01*
X143010000Y-76348665D01*
X142326654Y-76348665D01*
X142519759Y-76219637D01*
X142719637Y-76019759D01*
X142876680Y-75784727D01*
X142984853Y-75523574D01*
X143040000Y-75246335D01*
X143040000Y-74963665D01*
X142984853Y-74686426D01*
X142876680Y-74425273D01*
X142719637Y-74190241D01*
X142519759Y-73990363D01*
X142284727Y-73833320D01*
X142181380Y-73790512D01*
X143004783Y-73790512D01*
X143046213Y-74070130D01*
X143141397Y-74336292D01*
X143208329Y-74461514D01*
X143452298Y-74533097D01*
X144265395Y-73720000D01*
X144624605Y-73720000D01*
X145437702Y-74533097D01*
X145681671Y-74461514D01*
X145802571Y-74206004D01*
X145871300Y-73931816D01*
X145885217Y-73649488D01*
X145843787Y-73369870D01*
X145748603Y-73103708D01*
X145681671Y-72978486D01*
X145437702Y-72906903D01*
X144624605Y-73720000D01*
X144265395Y-73720000D01*
X143452298Y-72906903D01*
X143208329Y-72978486D01*
X143087429Y-73233996D01*
X143018700Y-73508184D01*
X143004783Y-73790512D01*
X142181380Y-73790512D01*
X142023574Y-73725147D01*
X141997699Y-73720000D01*
X142023574Y-73714853D01*
X142284727Y-73606680D01*
X142519759Y-73449637D01*
X142719637Y-73249759D01*
X142876680Y-73014727D01*
X142984853Y-72753574D01*
X143040000Y-72476335D01*
X143040000Y-72193665D01*
X142984853Y-71916426D01*
X142876680Y-71655273D01*
X142719637Y-71420241D01*
X142519759Y-71220363D01*
X142284727Y-71063320D01*
X142023574Y-70955147D01*
X141997699Y-70950000D01*
X142023574Y-70944853D01*
X142284727Y-70836680D01*
X142326654Y-70808665D01*
X143010000Y-70808665D01*
X143010000Y-71091335D01*
X143065147Y-71368574D01*
X143173320Y-71629727D01*
X143330363Y-71864759D01*
X143530241Y-72064637D01*
X143765273Y-72221680D01*
X144026426Y-72329853D01*
X144054882Y-72335513D01*
X143828708Y-72416397D01*
X143703486Y-72483329D01*
X143631903Y-72727298D01*
X144445000Y-73540395D01*
X145258097Y-72727298D01*
X145186514Y-72483329D01*
X144931004Y-72362429D01*
X144828711Y-72336788D01*
X144863574Y-72329853D01*
X145124727Y-72221680D01*
X145359759Y-72064637D01*
X145559637Y-71864759D01*
X145716680Y-71629727D01*
X145824853Y-71368574D01*
X145880000Y-71091335D01*
X145880000Y-70808665D01*
X145824853Y-70531426D01*
X145716680Y-70270273D01*
X145559637Y-70035241D01*
X145359759Y-69835363D01*
X145124727Y-69678320D01*
X144863574Y-69570147D01*
X144586335Y-69515000D01*
X144303665Y-69515000D01*
X144026426Y-69570147D01*
X143765273Y-69678320D01*
X143530241Y-69835363D01*
X143330363Y-70035241D01*
X143173320Y-70270273D01*
X143065147Y-70531426D01*
X143010000Y-70808665D01*
X142326654Y-70808665D01*
X142519759Y-70679637D01*
X142719637Y-70479759D01*
X142876680Y-70244727D01*
X142984853Y-69983574D01*
X143040000Y-69706335D01*
X143040000Y-69423665D01*
X142984853Y-69146426D01*
X142876680Y-68885273D01*
X142719637Y-68650241D01*
X142519759Y-68450363D01*
X142284727Y-68293320D01*
X142023574Y-68185147D01*
X141746335Y-68130000D01*
X141463665Y-68130000D01*
X141186426Y-68185147D01*
X140925273Y-68293320D01*
X140690241Y-68450363D01*
X140490363Y-68650241D01*
X140333320Y-68885273D01*
X140225147Y-69146426D01*
X140170000Y-69423665D01*
X140170000Y-69706335D01*
X140225147Y-69983574D01*
X140333320Y-70244727D01*
X140490363Y-70479759D01*
X140690241Y-70679637D01*
X140925273Y-70836680D01*
X141186426Y-70944853D01*
X141212301Y-70950000D01*
X141186426Y-70955147D01*
X140925273Y-71063320D01*
X140690241Y-71220363D01*
X140490363Y-71420241D01*
X140333320Y-71655273D01*
X140225147Y-71916426D01*
X140170000Y-72193665D01*
X140170000Y-72476335D01*
X140225147Y-72753574D01*
X140333320Y-73014727D01*
X140490363Y-73249759D01*
X140690241Y-73449637D01*
X140925273Y-73606680D01*
X141186426Y-73714853D01*
X141212301Y-73720000D01*
X141186426Y-73725147D01*
X140925273Y-73833320D01*
X140690241Y-73990363D01*
X140490363Y-74190241D01*
X140333320Y-74425273D01*
X140225147Y-74686426D01*
X140170000Y-74963665D01*
X140170000Y-75246335D01*
X140225147Y-75523574D01*
X140333320Y-75784727D01*
X140490363Y-76019759D01*
X140690241Y-76219637D01*
X140925273Y-76376680D01*
X141186426Y-76484853D01*
X141212301Y-76490000D01*
X141186426Y-76495147D01*
X140925273Y-76603320D01*
X140690241Y-76760363D01*
X140490363Y-76960241D01*
X140333320Y-77195273D01*
X140225147Y-77456426D01*
X140170000Y-77733665D01*
X140170000Y-78016335D01*
X140225147Y-78293574D01*
X140333320Y-78554727D01*
X140490363Y-78789759D01*
X140690241Y-78989637D01*
X140925273Y-79146680D01*
X141070725Y-79206928D01*
X140805000Y-79206928D01*
X140680518Y-79219188D01*
X140560820Y-79255498D01*
X140450506Y-79314463D01*
X140353815Y-79393815D01*
X140274463Y-79490506D01*
X140215498Y-79600820D01*
X140179188Y-79720518D01*
X140166928Y-79845000D01*
X137013106Y-79845000D01*
X137029367Y-79806818D01*
X137046904Y-79724039D01*
X136924915Y-79502000D01*
X135382000Y-79502000D01*
X135382000Y-79522000D01*
X135128000Y-79522000D01*
X135128000Y-79502000D01*
X133585085Y-79502000D01*
X133463096Y-79724039D01*
X133480633Y-79806818D01*
X133591285Y-80066646D01*
X133750500Y-80299895D01*
X133952161Y-80497601D01*
X134181741Y-80647735D01*
X134053899Y-80716068D01*
X133835392Y-80895392D01*
X133656068Y-81113899D01*
X133522818Y-81363192D01*
X133440764Y-81633691D01*
X133413057Y-81915000D01*
X122513258Y-81915000D01*
X122536185Y-81896185D01*
X122615537Y-81799494D01*
X122674502Y-81689180D01*
X122710812Y-81569482D01*
X122723072Y-81445000D01*
X122723072Y-79845000D01*
X122710812Y-79720518D01*
X122674502Y-79600820D01*
X122615537Y-79490506D01*
X122536185Y-79393815D01*
X122513259Y-79375000D01*
X125793057Y-79375000D01*
X125820764Y-79656309D01*
X125902818Y-79926808D01*
X126036068Y-80176101D01*
X126215392Y-80394608D01*
X126433899Y-80573932D01*
X126561741Y-80642265D01*
X126332161Y-80792399D01*
X126130500Y-80990105D01*
X125971285Y-81223354D01*
X125860633Y-81483182D01*
X125843096Y-81565961D01*
X125965085Y-81788000D01*
X127508000Y-81788000D01*
X127508000Y-81768000D01*
X127762000Y-81768000D01*
X127762000Y-81788000D01*
X129304915Y-81788000D01*
X129426904Y-81565961D01*
X129409367Y-81483182D01*
X129298715Y-81223354D01*
X129139500Y-80990105D01*
X128937839Y-80792399D01*
X128708259Y-80642265D01*
X128836101Y-80573932D01*
X129054608Y-80394608D01*
X129233932Y-80176101D01*
X129367182Y-79926808D01*
X129449236Y-79656309D01*
X129476943Y-79375000D01*
X129449236Y-79093691D01*
X129367182Y-78823192D01*
X129233932Y-78573899D01*
X129054608Y-78355392D01*
X128836101Y-78176068D01*
X128708259Y-78107735D01*
X128937839Y-77957601D01*
X129139500Y-77759895D01*
X129298715Y-77526646D01*
X129409367Y-77266818D01*
X129426904Y-77184039D01*
X129304915Y-76962000D01*
X127762000Y-76962000D01*
X127762000Y-76982000D01*
X127508000Y-76982000D01*
X127508000Y-76962000D01*
X125965085Y-76962000D01*
X125843096Y-77184039D01*
X125860633Y-77266818D01*
X125971285Y-77526646D01*
X126130500Y-77759895D01*
X126332161Y-77957601D01*
X126561741Y-78107735D01*
X126433899Y-78176068D01*
X126215392Y-78355392D01*
X126036068Y-78573899D01*
X125902818Y-78823192D01*
X125820764Y-79093691D01*
X125793057Y-79375000D01*
X122513259Y-79375000D01*
X122439494Y-79314463D01*
X122329180Y-79255498D01*
X122209482Y-79219188D01*
X122085000Y-79206928D01*
X121819275Y-79206928D01*
X121964727Y-79146680D01*
X122199759Y-78989637D01*
X122399637Y-78789759D01*
X122556680Y-78554727D01*
X122664853Y-78293574D01*
X122720000Y-78016335D01*
X122720000Y-77733665D01*
X122664853Y-77456426D01*
X122556680Y-77195273D01*
X122399637Y-76960241D01*
X122274396Y-76835000D01*
X133413057Y-76835000D01*
X133440764Y-77116309D01*
X133522818Y-77386808D01*
X133656068Y-77636101D01*
X133835392Y-77854608D01*
X134053899Y-78033932D01*
X134181741Y-78102265D01*
X133952161Y-78252399D01*
X133750500Y-78450105D01*
X133591285Y-78683354D01*
X133480633Y-78943182D01*
X133463096Y-79025961D01*
X133585085Y-79248000D01*
X135128000Y-79248000D01*
X135128000Y-79228000D01*
X135382000Y-79228000D01*
X135382000Y-79248000D01*
X136924915Y-79248000D01*
X137046904Y-79025961D01*
X137029367Y-78943182D01*
X136918715Y-78683354D01*
X136759500Y-78450105D01*
X136557839Y-78252399D01*
X136328259Y-78102265D01*
X136456101Y-78033932D01*
X136674608Y-77854608D01*
X136853932Y-77636101D01*
X136987182Y-77386808D01*
X137069236Y-77116309D01*
X137096943Y-76835000D01*
X137069236Y-76553691D01*
X136987182Y-76283192D01*
X136853932Y-76033899D01*
X136674608Y-75815392D01*
X136456101Y-75636068D01*
X136328259Y-75567735D01*
X136557839Y-75417601D01*
X136759500Y-75219895D01*
X136918715Y-74986646D01*
X137029367Y-74726818D01*
X137046904Y-74644039D01*
X136924915Y-74422000D01*
X135382000Y-74422000D01*
X135382000Y-74442000D01*
X135128000Y-74442000D01*
X135128000Y-74422000D01*
X133585085Y-74422000D01*
X133463096Y-74644039D01*
X133480633Y-74726818D01*
X133591285Y-74986646D01*
X133750500Y-75219895D01*
X133952161Y-75417601D01*
X134181741Y-75567735D01*
X134053899Y-75636068D01*
X133835392Y-75815392D01*
X133656068Y-76033899D01*
X133522818Y-76283192D01*
X133440764Y-76553691D01*
X133413057Y-76835000D01*
X122274396Y-76835000D01*
X122199759Y-76760363D01*
X121964727Y-76603320D01*
X121703574Y-76495147D01*
X121677699Y-76490000D01*
X121703574Y-76484853D01*
X121964727Y-76376680D01*
X122199759Y-76219637D01*
X122399637Y-76019759D01*
X122556680Y-75784727D01*
X122664853Y-75523574D01*
X122720000Y-75246335D01*
X122720000Y-74963665D01*
X122664853Y-74686426D01*
X122556680Y-74425273D01*
X122469635Y-74295000D01*
X125793057Y-74295000D01*
X125820764Y-74576309D01*
X125902818Y-74846808D01*
X126036068Y-75096101D01*
X126215392Y-75314608D01*
X126433899Y-75493932D01*
X126561741Y-75562265D01*
X126332161Y-75712399D01*
X126130500Y-75910105D01*
X125971285Y-76143354D01*
X125860633Y-76403182D01*
X125843096Y-76485961D01*
X125965085Y-76708000D01*
X127508000Y-76708000D01*
X127508000Y-76688000D01*
X127762000Y-76688000D01*
X127762000Y-76708000D01*
X129304915Y-76708000D01*
X129426904Y-76485961D01*
X129409367Y-76403182D01*
X129298715Y-76143354D01*
X129139500Y-75910105D01*
X128937839Y-75712399D01*
X128708259Y-75562265D01*
X128836101Y-75493932D01*
X129054608Y-75314608D01*
X129233932Y-75096101D01*
X129367182Y-74846808D01*
X129449236Y-74576309D01*
X129476943Y-74295000D01*
X129449236Y-74013691D01*
X129367182Y-73743192D01*
X129233932Y-73493899D01*
X129054608Y-73275392D01*
X128941518Y-73182581D01*
X128959482Y-73180812D01*
X129079180Y-73144502D01*
X129189494Y-73085537D01*
X129286185Y-73006185D01*
X129365537Y-72909494D01*
X129424502Y-72799180D01*
X129460812Y-72679482D01*
X129473072Y-72555000D01*
X129473072Y-71755000D01*
X133413057Y-71755000D01*
X133440764Y-72036309D01*
X133522818Y-72306808D01*
X133656068Y-72556101D01*
X133835392Y-72774608D01*
X134053899Y-72953932D01*
X134181741Y-73022265D01*
X133952161Y-73172399D01*
X133750500Y-73370105D01*
X133591285Y-73603354D01*
X133480633Y-73863182D01*
X133463096Y-73945961D01*
X133585085Y-74168000D01*
X135128000Y-74168000D01*
X135128000Y-74148000D01*
X135382000Y-74148000D01*
X135382000Y-74168000D01*
X136924915Y-74168000D01*
X137046904Y-73945961D01*
X137029367Y-73863182D01*
X136918715Y-73603354D01*
X136759500Y-73370105D01*
X136557839Y-73172399D01*
X136328259Y-73022265D01*
X136456101Y-72953932D01*
X136674608Y-72774608D01*
X136853932Y-72556101D01*
X136987182Y-72306808D01*
X137069236Y-72036309D01*
X137096943Y-71755000D01*
X137069236Y-71473691D01*
X136987182Y-71203192D01*
X136853932Y-70953899D01*
X136674608Y-70735392D01*
X136456101Y-70556068D01*
X136206808Y-70422818D01*
X135936309Y-70340764D01*
X135725492Y-70320000D01*
X134784508Y-70320000D01*
X134573691Y-70340764D01*
X134303192Y-70422818D01*
X134053899Y-70556068D01*
X133835392Y-70735392D01*
X133656068Y-70953899D01*
X133522818Y-71203192D01*
X133440764Y-71473691D01*
X133413057Y-71755000D01*
X129473072Y-71755000D01*
X129473072Y-70955000D01*
X129460812Y-70830518D01*
X129424502Y-70710820D01*
X129365537Y-70600506D01*
X129286185Y-70503815D01*
X129189494Y-70424463D01*
X129079180Y-70365498D01*
X128959482Y-70329188D01*
X128835000Y-70316928D01*
X126435000Y-70316928D01*
X126310518Y-70329188D01*
X126190820Y-70365498D01*
X126080506Y-70424463D01*
X125983815Y-70503815D01*
X125904463Y-70600506D01*
X125845498Y-70710820D01*
X125809188Y-70830518D01*
X125796928Y-70955000D01*
X125796928Y-72555000D01*
X125809188Y-72679482D01*
X125845498Y-72799180D01*
X125904463Y-72909494D01*
X125983815Y-73006185D01*
X126080506Y-73085537D01*
X126190820Y-73144502D01*
X126310518Y-73180812D01*
X126328482Y-73182581D01*
X126215392Y-73275392D01*
X126036068Y-73493899D01*
X125902818Y-73743192D01*
X125820764Y-74013691D01*
X125793057Y-74295000D01*
X122469635Y-74295000D01*
X122399637Y-74190241D01*
X122199759Y-73990363D01*
X121964727Y-73833320D01*
X121703574Y-73725147D01*
X121677699Y-73720000D01*
X121703574Y-73714853D01*
X121964727Y-73606680D01*
X122199759Y-73449637D01*
X122399637Y-73249759D01*
X122556680Y-73014727D01*
X122664853Y-72753574D01*
X122720000Y-72476335D01*
X122720000Y-72193665D01*
X122664853Y-71916426D01*
X122556680Y-71655273D01*
X122399637Y-71420241D01*
X122199759Y-71220363D01*
X121964727Y-71063320D01*
X121703574Y-70955147D01*
X121677699Y-70950000D01*
X121703574Y-70944853D01*
X121964727Y-70836680D01*
X122199759Y-70679637D01*
X122399637Y-70479759D01*
X122556680Y-70244727D01*
X122664853Y-69983574D01*
X122720000Y-69706335D01*
X122720000Y-69423665D01*
X122664853Y-69146426D01*
X122578397Y-68937702D01*
X128171903Y-68937702D01*
X128243486Y-69181671D01*
X128498996Y-69302571D01*
X128773184Y-69371300D01*
X129055512Y-69385217D01*
X129335130Y-69343787D01*
X129601292Y-69248603D01*
X129726514Y-69181671D01*
X129798097Y-68937702D01*
X128985000Y-68124605D01*
X128171903Y-68937702D01*
X122578397Y-68937702D01*
X122556680Y-68885273D01*
X122399637Y-68650241D01*
X122199759Y-68450363D01*
X121964727Y-68293320D01*
X121703574Y-68185147D01*
X121426335Y-68130000D01*
X121143665Y-68130000D01*
X120866426Y-68185147D01*
X120605273Y-68293320D01*
X120370241Y-68450363D01*
X120170363Y-68650241D01*
X120013320Y-68885273D01*
X119905147Y-69146426D01*
X119850000Y-69423665D01*
X119850000Y-69706335D01*
X119905147Y-69983574D01*
X120013320Y-70244727D01*
X120170363Y-70479759D01*
X120370241Y-70679637D01*
X120605273Y-70836680D01*
X120866426Y-70944853D01*
X120892301Y-70950000D01*
X120866426Y-70955147D01*
X120605273Y-71063320D01*
X120370241Y-71220363D01*
X120170363Y-71420241D01*
X120013320Y-71655273D01*
X119905147Y-71916426D01*
X119850000Y-72193665D01*
X119850000Y-72476335D01*
X119905147Y-72753574D01*
X120013320Y-73014727D01*
X120170363Y-73249759D01*
X120370241Y-73449637D01*
X120605273Y-73606680D01*
X120866426Y-73714853D01*
X120892301Y-73720000D01*
X120866426Y-73725147D01*
X120605273Y-73833320D01*
X120370241Y-73990363D01*
X120170363Y-74190241D01*
X120013320Y-74425273D01*
X119905147Y-74686426D01*
X119850000Y-74963665D01*
X119850000Y-75246335D01*
X119905147Y-75523574D01*
X120013320Y-75784727D01*
X120170363Y-76019759D01*
X120370241Y-76219637D01*
X120605273Y-76376680D01*
X120866426Y-76484853D01*
X120892301Y-76490000D01*
X120866426Y-76495147D01*
X120605273Y-76603320D01*
X120370241Y-76760363D01*
X120170363Y-76960241D01*
X120013320Y-77195273D01*
X119905147Y-77456426D01*
X119850000Y-77733665D01*
X119850000Y-78016335D01*
X119905147Y-78293574D01*
X120013320Y-78554727D01*
X120170363Y-78789759D01*
X120370241Y-78989637D01*
X120605273Y-79146680D01*
X120750725Y-79206928D01*
X120485000Y-79206928D01*
X120360518Y-79219188D01*
X120240820Y-79255498D01*
X120130506Y-79314463D01*
X120033815Y-79393815D01*
X119954463Y-79490506D01*
X119895498Y-79600820D01*
X119859188Y-79720518D01*
X119846928Y-79845000D01*
X119755917Y-79845000D01*
X119824853Y-79678574D01*
X119880000Y-79401335D01*
X119880000Y-79118665D01*
X119824853Y-78841426D01*
X119716680Y-78580273D01*
X119559637Y-78345241D01*
X119359759Y-78145363D01*
X119124727Y-77988320D01*
X118863574Y-77880147D01*
X118837699Y-77875000D01*
X118863574Y-77869853D01*
X119124727Y-77761680D01*
X119359759Y-77604637D01*
X119559637Y-77404759D01*
X119716680Y-77169727D01*
X119824853Y-76908574D01*
X119880000Y-76631335D01*
X119880000Y-76348665D01*
X119824853Y-76071426D01*
X119716680Y-75810273D01*
X119559637Y-75575241D01*
X119359759Y-75375363D01*
X119124727Y-75218320D01*
X118863574Y-75110147D01*
X118837699Y-75105000D01*
X118863574Y-75099853D01*
X119124727Y-74991680D01*
X119359759Y-74834637D01*
X119559637Y-74634759D01*
X119716680Y-74399727D01*
X119824853Y-74138574D01*
X119880000Y-73861335D01*
X119880000Y-73578665D01*
X119824853Y-73301426D01*
X119716680Y-73040273D01*
X119559637Y-72805241D01*
X119359759Y-72605363D01*
X119124727Y-72448320D01*
X118863574Y-72340147D01*
X118835118Y-72334487D01*
X119061292Y-72253603D01*
X119186514Y-72186671D01*
X119258097Y-71942702D01*
X118445000Y-71129605D01*
X117631903Y-71942702D01*
X117703486Y-72186671D01*
X117958996Y-72307571D01*
X118061289Y-72333212D01*
X118026426Y-72340147D01*
X117765273Y-72448320D01*
X117530241Y-72605363D01*
X117330363Y-72805241D01*
X117173320Y-73040273D01*
X117065147Y-73301426D01*
X117010000Y-73578665D01*
X116915000Y-73578665D01*
X116915000Y-71020512D01*
X117004783Y-71020512D01*
X117046213Y-71300130D01*
X117141397Y-71566292D01*
X117208329Y-71691514D01*
X117452298Y-71763097D01*
X118265395Y-70950000D01*
X118624605Y-70950000D01*
X119437702Y-71763097D01*
X119681671Y-71691514D01*
X119802571Y-71436004D01*
X119871300Y-71161816D01*
X119885217Y-70879488D01*
X119843787Y-70599870D01*
X119748603Y-70333708D01*
X119681671Y-70208486D01*
X119437702Y-70136903D01*
X118624605Y-70950000D01*
X118265395Y-70950000D01*
X117452298Y-70136903D01*
X117208329Y-70208486D01*
X117087429Y-70463996D01*
X117018700Y-70738184D01*
X117004783Y-71020512D01*
X116915000Y-71020512D01*
X116915000Y-69957298D01*
X117631903Y-69957298D01*
X118445000Y-70770395D01*
X119258097Y-69957298D01*
X119186514Y-69713329D01*
X118931004Y-69592429D01*
X118656816Y-69523700D01*
X118374488Y-69509783D01*
X118094870Y-69551213D01*
X117828708Y-69646397D01*
X117703486Y-69713329D01*
X117631903Y-69957298D01*
X116915000Y-69957298D01*
X116915000Y-68015512D01*
X127544783Y-68015512D01*
X127586213Y-68295130D01*
X127681397Y-68561292D01*
X127748329Y-68686514D01*
X127992298Y-68758097D01*
X128805395Y-67945000D01*
X129164605Y-67945000D01*
X129977702Y-68758097D01*
X130221671Y-68686514D01*
X130342571Y-68431004D01*
X130411300Y-68156816D01*
X130425217Y-67874488D01*
X130414724Y-67803665D01*
X132550000Y-67803665D01*
X132550000Y-68086335D01*
X132605147Y-68363574D01*
X132713320Y-68624727D01*
X132870363Y-68859759D01*
X133070241Y-69059637D01*
X133305273Y-69216680D01*
X133566426Y-69324853D01*
X133843665Y-69380000D01*
X134126335Y-69380000D01*
X134403574Y-69324853D01*
X134664727Y-69216680D01*
X134899759Y-69059637D01*
X135099637Y-68859759D01*
X135256680Y-68624727D01*
X135364853Y-68363574D01*
X135420000Y-68086335D01*
X135420000Y-67803665D01*
X135364853Y-67526426D01*
X135256680Y-67265273D01*
X135099637Y-67030241D01*
X134899759Y-66830363D01*
X134664727Y-66673320D01*
X134403574Y-66565147D01*
X134126335Y-66510000D01*
X133843665Y-66510000D01*
X133566426Y-66565147D01*
X133305273Y-66673320D01*
X133070241Y-66830363D01*
X132870363Y-67030241D01*
X132713320Y-67265273D01*
X132605147Y-67526426D01*
X132550000Y-67803665D01*
X130414724Y-67803665D01*
X130383787Y-67594870D01*
X130288603Y-67328708D01*
X130221671Y-67203486D01*
X129977702Y-67131903D01*
X129164605Y-67945000D01*
X128805395Y-67945000D01*
X127992298Y-67131903D01*
X127748329Y-67203486D01*
X127627429Y-67458996D01*
X127558700Y-67733184D01*
X127544783Y-68015512D01*
X116915000Y-68015512D01*
X116915000Y-66952298D01*
X128171903Y-66952298D01*
X128985000Y-67765395D01*
X129798097Y-66952298D01*
X129726514Y-66708329D01*
X129471004Y-66587429D01*
X129196816Y-66518700D01*
X128914488Y-66504783D01*
X128634870Y-66546213D01*
X128368708Y-66641397D01*
X128243486Y-66708329D01*
X128171903Y-66952298D01*
X116915000Y-66952298D01*
X116915000Y-62345475D01*
X117230000Y-62345475D01*
X117230000Y-62864525D01*
X117331261Y-63373601D01*
X117529893Y-63853141D01*
X117818262Y-64284715D01*
X118185285Y-64651738D01*
X118616859Y-64940107D01*
X119096399Y-65138739D01*
X119605475Y-65240000D01*
X120124525Y-65240000D01*
X120633601Y-65138739D01*
X121113141Y-64940107D01*
X121544715Y-64651738D01*
X121567788Y-64628665D01*
X126200000Y-64628665D01*
X126200000Y-64911335D01*
X126255147Y-65188574D01*
X126363320Y-65449727D01*
X126520363Y-65684759D01*
X126720241Y-65884637D01*
X126955273Y-66041680D01*
X127216426Y-66149853D01*
X127493665Y-66205000D01*
X127776335Y-66205000D01*
X128053574Y-66149853D01*
X128314727Y-66041680D01*
X128549759Y-65884637D01*
X128749637Y-65684759D01*
X128906680Y-65449727D01*
X129014853Y-65188574D01*
X129070000Y-64911335D01*
X129070000Y-64628665D01*
X129014853Y-64351426D01*
X128906680Y-64090273D01*
X128826317Y-63970000D01*
X133816928Y-63970000D01*
X133816928Y-65570000D01*
X133829188Y-65694482D01*
X133865498Y-65814180D01*
X133924463Y-65924494D01*
X134003815Y-66021185D01*
X134100506Y-66100537D01*
X134210820Y-66159502D01*
X134330518Y-66195812D01*
X134455000Y-66208072D01*
X136055000Y-66208072D01*
X136179482Y-66195812D01*
X136299180Y-66159502D01*
X136409494Y-66100537D01*
X136506185Y-66021185D01*
X136585537Y-65924494D01*
X136644502Y-65814180D01*
X136680812Y-65694482D01*
X136693072Y-65570000D01*
X136693072Y-63970000D01*
X136680812Y-63845518D01*
X136644502Y-63725820D01*
X136585537Y-63615506D01*
X136506185Y-63518815D01*
X136409494Y-63439463D01*
X136299180Y-63380498D01*
X136179482Y-63344188D01*
X136055000Y-63331928D01*
X134455000Y-63331928D01*
X134330518Y-63344188D01*
X134210820Y-63380498D01*
X134100506Y-63439463D01*
X134003815Y-63518815D01*
X133924463Y-63615506D01*
X133865498Y-63725820D01*
X133829188Y-63845518D01*
X133816928Y-63970000D01*
X128826317Y-63970000D01*
X128749637Y-63855241D01*
X128549759Y-63655363D01*
X128314727Y-63498320D01*
X128053574Y-63390147D01*
X127776335Y-63335000D01*
X127493665Y-63335000D01*
X127216426Y-63390147D01*
X126955273Y-63498320D01*
X126720241Y-63655363D01*
X126520363Y-63855241D01*
X126363320Y-64090273D01*
X126255147Y-64351426D01*
X126200000Y-64628665D01*
X121567788Y-64628665D01*
X121911738Y-64284715D01*
X122200107Y-63853141D01*
X122398739Y-63373601D01*
X122500000Y-62864525D01*
X122500000Y-62345475D01*
X122398739Y-61836399D01*
X122200107Y-61356859D01*
X121911738Y-60925285D01*
X121544715Y-60558262D01*
X121113141Y-60269893D01*
X120633601Y-60071261D01*
X120124525Y-59970000D01*
X119605475Y-59970000D01*
X119096399Y-60071261D01*
X118616859Y-60269893D01*
X118185285Y-60558262D01*
X117818262Y-60925285D01*
X117529893Y-61356859D01*
X117331261Y-61836399D01*
X117230000Y-62345475D01*
X116915000Y-62345475D01*
X116915000Y-60359720D01*
X116929005Y-60216891D01*
X116960402Y-60112899D01*
X117011399Y-60016986D01*
X117080055Y-59932806D01*
X117163758Y-59863560D01*
X117259311Y-59811895D01*
X117363078Y-59779773D01*
X117503641Y-59765000D01*
X127076756Y-59765000D01*
X126955273Y-59815320D01*
M02*
